<svg width="746.466" height="913.402" viewBox="0 0 197.503 241.671" xml:space="preserve" xmlns="http://www.w3.org/2000/svg">
    <defs>
        <path id="c" d="M221.061 725.211H331.72v52.876H221.061z"/>
        <path id="d" d="M412.064 724.391h130.341v49.459H412.064z"/>
        <marker style="overflow:visible" id="b" refX="0" refY="0" orient="auto-start-reverse" markerWidth="10.33" markerHeight="7" viewBox="0 0 10.33 7" preserveAspectRatio="xMidYMid">
            <path style="fill:none;fill-rule:evenodd;stroke:context-stroke;stroke-width:1;stroke-linecap:round" d="m-3-3-3.11 3L-3 3m3-6-3 3 3 3m3 0L0 0l3-3"/>
        </marker>
        <filter style="color-interpolation-filters:sRGB" id="a" x="-.04" y="-.032" width="1.097" height="1.078">
            <feOffset dy="3" dx="3"/>
            <feGaussianBlur stdDeviation="3" result="blur"/>
            <feFlood flood-color="#000" flood-opacity="1" result="flood"/>
            <feComposite in="flood" in2="SourceGraphic" operator="in" result="composite"/>
            <feBlend in="blur" in2="composite"/>
        </filter>
    </defs>
    <g transform="translate(-7.649 -32.963)">
        <path style="fill:#000;stroke-width:.205324;filter:url(#a)" d="m53.545 263.466-14.734-1.574-4.022-1.059c-4.21-2.691-7.158-5.03-10.195-8.086-4.591-4.623-7.992-10.986-9.144-17.108-.558-2.962-.702-8.854-.537-21.964.068-5.484.178-29.772.244-53.972.128-47.053.272-66.219.499-66.219.077 0 1.489.939 3.137 2.086 6.953 4.84 7.507 5.092 9.985 4.521 1.7-.39 3.654-1.257 5.863-2.6 4.123-2.504 6.258-5.08 11.93-14.39 1.627-2.67 3.548-5.743 4.268-6.827.72-1.085 2.295-3.582 3.499-5.549 1.204-1.967 3.188-5.186 4.408-7.153 6.468-10.426 11.69-19.447 12.954-22.38l.444-1.03h9.049l-1.072 2.548c-3.242 7.698-7.273 15.198-12.906 24.011a424.554 424.554 0 0 0-4.192 6.691c-.856 1.412-1.741 2.823-1.967 3.137-.226.314-1.753 2.765-3.394 5.447l-5.501 8.996c-6.48 10.594-7.813 12.853-10.095 17.103-.634 1.181-1.505 2.669-1.937 3.306-.728 1.074-.843 1.157-1.588 1.153-.441-.002-1.165-.188-1.607-.412-1.54-.779-7.852-4.976-10.02-6.663-.819-.636-1.53-1.157-1.581-1.157-.051 0-.099 13.729-.106 30.508-.012 27.274-.141 48.811-.325 54.026-.036 1.014-.128 10.816-.205 21.784-.151 21.402-.12 22.42.804 25.694.615 2.18 2.42 5.202 4.634 7.753 4.01 4.622 8.454 6.773 18.248 8.83 8.978 1.885 25.508 2.735 54.122 2.783 34.484.058 52.539-1.087 62.679-3.972 6.909-1.966 12.877-5.429 15.613-9.06 1.898-2.518 3.218-5.51 3.897-8.835.306-1.497.303-128.16-.003-128.501-.147-.165-.954.346-2.784 1.763-5.292 4.1-8.329 6.301-9.214 6.678l-.912.388-.698-.877c-1.182-1.487-3.768-5.636-5.992-9.612-5.341-9.553-4.896-8.78-11.307-19.617-5.278-8.92-7.475-12.476-10.78-17.448-3.217-4.838-8.016-12.888-10.015-16.799-1.823-3.567-3.79-7.684-4.22-8.833l-.303-.812h9.088l1.828 3.408c1.006 1.874 3.229 5.728 4.94 8.563 4.669 7.734 10.97 18.144 14.009 23.143 1.485 2.444 3.31 5.467 4.054 6.72 3.606 6.065 7.573 11.814 9.522 13.8 2.172 2.212 5.135 3.76 8.08 4.225 2.375.374 3.528-.095 8.41-3.424 1.478-1.008 3.485-2.471 4.46-3.252.975-.78 1.831-1.352 1.903-1.272.218.243.269 134.56.052 138.94-.238 4.824-.703 6.922-2.36 10.656-1.973 4.447-4.475 8.009-7.577 10.786-3.296 2.952-6.834 5.992-11.694 7.676l-4.067 1.409c-22.336 2.058-43.712 3.21-65.776 2.816m-4.986-92.208c-3.248-.172-3.93-.266-8.684-1.206-7.256-1.434-14.495-4.608-18.896-8.285-6.636-5.544-12.851-15.645-16.514-26.835-1.446-4.419-1.61-7.73-.512-10.346.364-.867.736-1.442.991-1.532.438-.155.53-.44.214-.657-.107-.074-.195-.368-.195-.654 0-.386-.212-.653-.826-1.037-.455-.285-1.517-.948-2.361-1.473-2.27-1.411-4.032-3.325-4.93-5.35-.674-1.523-.732-1.8-.731-3.506.001-2.224.549-3.772 1.814-5.127 1.488-1.593 5.198-3.341 8-3.769 2.59-.395 5.631.46 6.906 1.944l.52.604-1.734-.11c-3.505-.223-7.029.636-10.212 2.49-.725.421-1.533 1.05-1.794 1.397-1.414 1.872-.819 4.929 1.378 7.084 1.277 1.252 4.605 3.082 7.876 4.33a191.04 191.04 0 0 1 4.75 1.888c2.651 1.115 7.465 2.815 10.405 3.675 5.004 1.465 12.53 2.935 16.63 3.249.962.073 2.932.299 4.376.5 2.068.29 4.092.362 9.53.34 12.709-.048 22.17-1.153 30.536-3.565 5.847-1.687 14.347-5.095 19.158-7.683 5.553-2.988 7.118-6.499 4.35-9.76-1.912-2.252-4.67-3.13-10.929-3.474-2.752-.152-3.022-.309-2.33-1.355.74-1.122 1.862-1.357 5.991-1.26 4.057.095 5.387.396 7.408 1.672 1.322.836 2.9 2.734 3.543 4.264.454 1.08.524 1.523.524 3.306 0 1.868-.052 2.165-.564 3.195-1.074 2.16-3.682 4.457-6.892 6.07-.606.305-1.132.581-1.17.615-.037.035.2.435.527.89.863 1.201 1.225 2.337 1.34 4.205.123 2.013-.24 3.998-1.408 7.675-3.233 10.189-6.398 15.958-12.546 22.864-5.148 5.784-10.987 9.566-18.882 12.233-3.79 1.28-8.796 2.14-14.572 2.506-3.761.238-5.382.236-10.085-.012zm14.948-15.151c2.798-.323 9.45-1.612 12.425-2.409 5.902-1.58 12.604-4.132 16.214-6.176l1.945-1.103c1.422-.808 5.237-3.63 5.697-4.214.472-.598.313-.499-2.147 1.344-2.641 1.979-4.542 3.108-7.877 4.68-6.594 3.108-13.592 5.221-21.383 6.458-6.125.973-7.78 1.09-15.085 1.064-7.447-.025-10.342-.273-17.434-1.49-5.553-.953-15.201-4.018-18.483-5.872-.539-.304-1.029-.497-1.09-.43-.06.068-.073.148-.029.178.045.03.344.255.665.499.902.686 2.532 1.485 5.07 2.487 2.826 1.115 3.317 1.278 8.19 2.717 2.92.863 8.898 1.841 13.775 2.254 1.498.127 3.03.27 3.404.316 1.34.168 14.142-.072 16.143-.303zm.097-8.028c4.067-.417 12.287-1.744 12.741-2.057.07-.048.943-.286 1.94-.528 1.91-.465 8.366-2.687 10.506-3.617 4.92-2.137 5.67-2.544 8.278-4.494 2.704-2.021 5.936-5.842 7.084-8.375.305-.674.136-.475-1.11 1.3-1.745 2.49-4.585 5.305-7.153 7.092-3.892 2.708-12.1 6.11-18.38 7.618-8.45 2.03-16.07 2.825-24.328 2.54-4.702-.162-5.17-.187-8.444-.453-1.07-.087-2.339-.184-2.82-.215-.853-.054-1.48-.138-4.085-.545a67.816 67.816 0 0 0-2.43-.327 25.197 25.197 0 0 1-2.432-.426 34.22 34.22 0 0 0-2.14-.428c-.964-.146-7.09-1.834-9.238-2.545-1.49-.493-3.995-1.595-5.863-2.578-.657-.346-1.285-.629-1.395-.629-.11 0-.448-.223-.75-.495s-.977-.733-1.499-1.024c-2.018-1.124-6.539-7.044-6.539-8.561 0-.283-.088-.575-.194-.65-.388-.266-.187 1.226.315 2.338.601 1.335 2.266 3.707 3.721 5.303 3.679 4.035 10.277 7.032 21.54 9.782 2.007.49 7.899 1.312 11.183 1.56 1.872.142 4.192.325 5.154.408 2.812.241 14.004.246 16.338.007zm31.022-23.081c0-.06-.044-.108-.097-.108-.054 0-.097.048-.097.108s.043.108.097.108c.053 0 .097-.048.097-.108zm-46.095-12.05c-11.88-.73-20.13-2.374-28.664-5.714-3.574-1.398-6.24-3.604-7.326-6.064-2.403-5.44-.174-10.499 6.527-14.812 4.824-3.104 12.723-5.244 19.383-5.25 3.627-.004 6.19 2.083 9.516 2.691-1.35-3.46-.93-3.742-1.439-4.775-1.809-3.678-1.372-5.31-.655-5.86.847-.65 2.05-1.296 2.82-1.378.19-.02.964-.648 1.916-.651 2.266-.007 2.005-.68 2.426-.66.802.035 13.69.168 8.832 8.555-1.03 2.24-.5 4.643-.5 4.809 0 .426.322.373.621-.103.492-.783 2.09-1.779 3.596-2.24 2.227-.681 7.014-.674 10.273.016 9.237 1.955 16.704 6.476 18.889 11.434.499 1.132.56 1.501.56 3.332 0 1.8-.066 2.21-.525 3.251-2.205 5.001-8.978 8.782-20.203 11.277-9.3 2.068-16.981 2.7-26.047 2.142z"/>
        <path style="fill:#000;fill-opacity:1;stroke:#000;stroke-width:.328613;paint-order:stroke markers fill" d="M72.292 40.223s.245-1.555.413-2.323c.117-.531.248-1.06.412-1.578.143-.452.246-1 .498-1.333.392-.518.472-1.1 1.882-1.13 1.81-.037 5.8 0 5.8 0h4.265l14.639.003 3.066-.106 16.878-.134h11.625s.541-.22 1.8 1.04c0 0 1.199.983 2.087 2.22.724 1.007.646.946.93 1.442.456.792.511 1.05.649 1.43.06.168.19.498.19.498l-8.956-.103"/>
        <path style="fill:#fff;fill-opacity:1;stroke:#000;stroke-width:.328613;paint-order:stroke markers fill" d="m81.085 40.316.01-.017.008-.016c1.083-2.314 1.848-1.963 3.062-1.972.641-.005 1.407-.009 2.224-.01 3.326-.007 7.494.01 7.494.01l8.71.019 8.14-.01 7.778.028 4.143-.032s3.317.01 4.53.051c.978.034 1.351 1.958 1.351 1.958"/>
        <ellipse style="fill:#000;fill-opacity:1;stroke:#000;stroke-width:.328613;paint-order:stroke markers fill" cx="144.268" cy="125.819" rx=".477" ry=".505"/>
        <path style="fill:none;stroke:#232323;stroke-width:.102763" d="m84.205 175.628.325-.098m-30.302.098h27.596m4.004 0H97.3m-46.752.683 1.19-.586m.866 0h.433m52.704.098h.65m1.73 0h23.052m-33.657.097h.325m7.575 0-1.407.293m32.034-.293h6.926m2.814.098c1.913.41 4.118.015 6.06 0m1.083 0h.108m-53.895.098 3.464.097m-50.54.488v.293l-.65-.586c.427-.103 1.305-.096 1.949-.097 1.479-.003 2.958 0 4.437 0h4.004c.544 0 1.24-.128 1.607.28.315.348.144.597.672.658.716.081 1.558.029 2.266.037.822.009 1.913.086 2.696-.013.436-.056.888-.268 1.417-.24.4.022.516.16.866.225.553.101 1.753-.018 2.38.029-.023-.269.047-.537-.649-.586v.488m-9.632-.878c.708.038 1.881 0 2.706 0 2.09 0 4.186-.036 6.277.002 5.801.107 11.619-.002 17.423-.002 2.143 0 4.72-.018 6.818.004.494.005.542.108.912.228.298.097.542.052.82.1.282.05 2.715.205 2.922.258.41.105.518.21.866.288l-.063.586-.046 1.56V184.02c.742-.433.686-1.558 1.516-2.537m-52.271-5.075c-.347.437-.404.596-.406 1.074-.002.524-.018 1.207-.026 1.756-.033 2.307-.001 4.71-.001 7.026v35.519c0 .448.12 1-.096 1.36-.342.568-.745.43-.553 1.08l1.082-.098m12.445-47.717c.373.55.875.495.974.781m8.225-.78c-.584.537-3.942.292-5.195.292-.42 0-1.358-.062-1.715.031-.398.104-.318.331-.34.457m7.683-.78v.78m3.355-.78c0 .4-.176.736.25.903.307.12.748.01 1.048-.123-.94-.448-3.226-.519-3.896.098.26.062.594.08.686-.125.21-.461-.525-.439-1.01-.46m3.355-.294c.191.387.296.53.324.879m.109-.879c.243.339 2.784.24 3.352.305.333.039.411.12.544.183-.76.366-2.29.23-3.464.293m0-.78c-.015.325-.023.336-.108.585m.541-.586c-.017.375-.038.379-.108.586m.758-.586v.684m12.662-.684c.303.41 3.07.547 3.463 0m-3.03 0v.196m2.705-.196.108.586.217-.195m12.77-.293c.32.01.23-.004.54.098l-.865.097m3.139 0c-.983 0-1.152-.02-1.516-.195.411-.11 2.236-.164 2.92-.085.337.038.41.118.544.183-.134.064-.207.144-.544.183-.266.03-.675 0-.972.02-.872.064-2.877.558-3.354-.106m7.683-.097c-.515.245-1.828.247-2.38 0 .552-.248 1.865-.246 2.38 0m1.84 0a1.884 1.884 0 0 1-1.623 0 1.884 1.884 0 0 1 1.623 0m1.732 0-.217.39-.54-.39c.283-.123 1.018-.233 1.622-.098l-.54.39c1.302.348 2.874-.522 4.22-.471.575.022.839.28 1.298.273.412-.006.555-.146.65-.192-.359-.096-.632-.098-1.19-.098m-3.355.293c.038-.27.701-.35 1.298-.195m4.437-.098c.703 0 1.589-.027 2.057.098-.133.064-.21.145-.544.183-.685.079-1.34-.005-1.513-.28m8.875 1.268c.574 0 1.2.202 1.45-.238.125-.22-.131-.811.32-.95.747-.23.988.362 1.26.798-1.245.263-2.994.09-4.33.009-.638-.04-1.403-.01-2.055-.01-.332 0-.88.028-1.179-.044-.513-.124-.451-.347-.336-.834 1.165.245 3.07-.18 4.112.098-.6.288-2.54.288-3.138 0m3.787-.098c.53 0 .745.008 1.083.098l-.181.1c-.539.191-.893-.034-1.551-.1m3.68-.098h3.679c.394 0 .918-.014 1.296.003.297.014.373.05.544.095-.132.063-.21.144-.544.183-.627.072-2.687.012-3.46.012-.295 0-.828.017-1.08-.012-.333-.039-.412-.12-.544-.183m7.143 0c-.348.163-.403.172-.758.097v-.097c.573-.14.53.034 1.19-.013 1.067-.075 2.72-.214 3.572.013-.606.291-2.749.291-3.355 0m5.303.097c-.76.203-1.163.072-1.515-.097.551-.127 2.057-.23 2.922 0a11.84 11.84 0 0 1-1.19.878c.105.267.11.49.116.78.012.616-.16 1.154.641 1.269m-100.105-2.927c-.017.428-.03.535 0 .78.114-.217.241-.4-.108-.585m38.96-.195c.214.35.423.369.865.394.866.048 1.726.094 2.598.094m.65-.488.216.585.324-.585m10.498.098c-.223.343-.342.246-.541.195.36-.222.56-.239 1.623-.098m-.325-.195h.217m1.298.39c.057-.157.003-.311.541-.39m4.438 0v.195m.54-.195v.195m.434-.195v.195m4.328-.195-.216.195h-.108m.65-.195.216.195m.432-.195H121m.542 0-.217.585-.216-.195m.757-.39c.06.683 1.078.676 1.948.683l.217-.488h.216l.108-.098m-1.84-.097c.454.218.753.17 1.19.097m2.057 0 .866-.097m2.273 0h1.84m.432 0-.216.195m5.736-.195h.54m.542 0-.433.195m6.818-.195h.757m4.762 0h.433m.541 0c.001.405 0 .544.108.878.268-.319.215-.473.217-.878m2.164 0c.167.531.106.803 0 1.17-.161-.195-.22-.408-.757-.487m-100.105-.586.108.098m53.353.098-.18-.091c-.58-.188-.816.004-1.443.383v-.488c.08.048.188.15.544.323.206.1.356.16.644.118.277-.04.424-.172.543-.245m2.706-.196h.216m4.005 0h.432m2.381 0h.217m1.623 0h.974m7.36 0c.012.364.036.648.865.684-.084-.403-.087-.442-.108-.684m-.433 0v.586m5.194-.586v.586m4.113-.586v.684m10.39-.684c.007.23-.209.506.34.652 1.087.291 2.487-.156 3.555.13-.652.422-2.002.292-3.247.292h-9.09M52.82 176.7c.948.103.959.142 1.092.58.08.267.121.334.43.381.6.093 2.115.015 2.807.015h10.822m-14.069-.878c1.943-.518 4.678-.098 6.71-.098.86 0 1.946-.105 2.705.098m1.407 0 .974.097m9.307-.195c.623 0 1.695-.21 2.056.293m4.438-.098 2.922-.025.865-.165 3.247.093-.65-.098m.866 0c.86 0 1.662-.036 2.165.098-.422.112-1.733.41-2.165-.098m2.814 0h.108m4.762 0 .543.37.756-.37m-.866 0v.098m7.034.292-.324-.097.433-.293m1.298 0v.293m32.575-.293c-.097.285-.094.274-.108.586m7.25-.586c.034.382.1.547.65.586m4.437-.586c.014.387-.022.547.433.683m-99.456-.585c.222.01.141.021.541 0m1.3 0 .324.488v-.488m.324 0 .251.429 1.806-.011 2.379.045 1.408-.113.866.132 3.247.005m-6.169-.488v.39m.325-.39v.39m.433-.39v.39m5.194-.39v.39m.758-.39v.39m.325-.39v.39m26.514-.39h.324m6.386 0h.757m.325 0c.108.179.188.29.324.098m.325-.098-.108.293m3.355 0c.18-.11.33-.361.974-.097-.633.272-.84.127-1.299.097m5.195-.293.324.293m16.558-.293v.39l-.433.098m.758-.488v.196m26.947-.196.108.586m2.165-.586v15.418M50.98 176.896l.217.585m23.05-.585.109.098m10.39-.098c.62.165 1.927 0 2.921 0m12.121 0c.232.311.628.283 1.082.293v-.293m-.65 0v.195m.326-.195v.195m.54-.195v.39l.65-.097m-.433-.293v.293m1.84-.293v.195m3.246-.195c.32.154.486.19.974.195m-55.192-.097.216.195m66.88-.195h.11m9.847 0c.52.116.637.29 1.515.292m-80.516-.195v13.856m20.237-13.856.541.195m6.169-.195v.195m18.938-.195h.217m2.056 0h.217m23.05 0h.109m16.666 0v.195m-38.96-.097h.217m53.353 0h.108m-99.455.097.108.39m4.762-.39c.27.064.163.064.432 0m.217 0c.322.095.22.095.541 0m26.19 0h5.194m33.332 0h1.19m13.096 0 4.112.004 2.056-.004m6.06 0 .542.098m-100.213 0c-.001.397-.031.944-.022 1.268.007.257.02.415.021.683.01 1.073 0 2.415 0 3.513 0 2.167.054 4.408-.004 6.538-.028 1.021-.216 2.314.113 3.318.272-.429.136-.362.533-.586.164-.092.257-.128.287-.3.047-.27-.167-.392-.22-.675-.074-.393.268-.87-.058-.684v.196m1.082-13.369c-.513.195-.916.334-.954.879-.044.63.244.566-.02 1.073-.104-.306-.095-.296-.108-.586m17.531-1.268h.866m3.463 0h.217M52.93 211.049v25.664c0 .494-.007 1.868 0 2.243.004.208-.033.765.435.706.23-.029.306-.174.338-.228.136-.224.19-.34.2-1.063.056-4.386 0-8.786 0-13.173v-15.906c0-4.31.009-8.765 0-13.075 0-.465-.046-.662-.09-1.074-.062-.597-.018-1.521-.018-2.146V181.97c0-1.005-.425-2.972.066-3.872.207-.38 1.08-.229 1.45-.185.66.078 1.521.056 2.164.056h1.623c.873 0 1.853.03 2.706.098.455.036.71.092 1.19.097 3.031.033 6.166-.175 9.199-.296.574-.023 1.528-.078 2.056-.169.43-.074.524-.157.866-.248.433-.116 1.099-.067 1.515-.067m-.758.683 8.442-.683m8.766 0 4.87.39m5.519 0c-.684.163-.769.598-.65.976.306-.342.384-.66.984-.977.638-.336 1.651-.262 2.371-.348 2.692-.32 5.618-.041 8.334-.041m2.164 0 3.896.098m6.169-.098h1.623c.455 0 .963.063 1.407-.098m19.913.098h.324m.217 0c-.265.225-.32.217-.65.098m-98.59 0h.217m.216 0 .433.292h-.866m78.461-.292c.548.264 1.54.356 2.922.388 2.462.058 4.788.001 7.25.001 1.031 0 2.649-.062 3.248.098-.488.13-1.22.135-2.057.186-1.449.09-2.886-.088-4.329-.088m15.043-.586c-.718.766-.433 3.102-.433 4.489 0 4.394-.108 8.786-.108 13.173M52.605 177.58c.318.17.541.299 1.082 0m16.883.098h.108m64.716 0h.108m14.827 0c.836.628.433 2.499.433 3.415v9.856m.757-13.271c.111.791-.036 1.043.02 1.756.024.3.079.481.087.78.02.771.002 1.836.002 2.636v5.562c0 9.533-.108 19.06-.108 28.59m.54-39.324h.867m-101.08.097.217.196m.541-.196.108.488.109-.488m.649 0 .325.293m46.643-.293h.325m22.51 0 8.333.684m19.155-.586.325.098m1.298-.196c0 .35.07 1.534-.006 2.342-.032.344-.189.491-.321.781-.194.423-.14 1.2.003 1.659.166-.233.521-.626.108-.683m.974-4.099c-.349.59-.35 1.46 0 2.05.197-.601.197-1.449 0-2.05m-100.105.098.062 1.659.046 3.22-.108 12.49m.325-17.369v13.856m8.766-13.66c.897-.432 4.196-.196 5.627-.196m30.519 0h.108m5.844 0-.758.878h1.19m38.203-.78h3.247l4.437-.098m.757 0c0 .557-.007.794.217 1.171m-1.948-1.073v3.513c0 2.86-.038 5.727 0 8.586.007.533.111.869.107 1.367-.003.415-.082.648-.103 1.073-.08 1.65-.004 3.414-.004 5.074V239.054c-.523.068-.673.187-.974.293l.216-.195m1.515-61.182v30.152m-49.025-30.055c.005 1.783.109 3.577.109 5.367 0 .85-.049 1.59.54 1.854l.109-1.268m-47.617-5.855V235.54c0 .92-.02 1.918 0 2.83.007.308-.014.523.25.627.338.133 1.094-.176 1.806-.139-.256.424-.505.902-.982.955-.43.048-.505-.443-.533-.565m19.912-61.084h.758m24.783 0c.055.427.116.587.54.78m-49.998-.683h.217m1.515 0c-.076.37-.108.81-.108 1.171v24.785c0 2.118-.107 4.23-.108 6.343 0 .773-.193 1.573-.542 2.05-.255-.78.365-1.788.217-2.245-.308.271-.312.428-.325.78m11.905-32.493 7.9-.293m73.05.293 3.57-.293m.433 0v.098m-93.828 7.416v-5.465l.174-1.851 1.883-.003 5.302.098m37.445-.196.758.293m34.09-.195 8.549.195m8.982-.195h.541m-101.62.098h.217m46.427 0 1.948.097m49.457-.097.217 13.368m-49.458-13.27v2.926m3.68-2.927c-.458.45-.737.848-.741 1.464-.003.45-.058.713.092 1.17l.865-1.17-.649-.098.974-1.17m-3.463-.098-.016 1.951.016 2.732m2.489-4.586c-.31.057-.311.113-.325.39m49.458-.487.324.097m0 0h.325m-100.754.293c.086.382.19.611.198 1.073.007.466-.015.698-.167 1.074-.289.71-.198.836-.031 1.366.343-.594.26-.718-.012-1.464-.282-.773-.077-1.164-.097-1.659m99.997-.195v1.269m-96.317-1.171h2.706m39.825 0 2.164.195m.542.097.216.098m52.055-.098c0 3.262-.08 6.71-.008 9.954.009.426.087.66.103 1.073.052 1.314-.026 2.79-.007 4.098.012.884.139 2.143.005 3.025-.1.656-.355.734-.31 1.464.356-.208.325-.514.326-.976m-49.458-18.345h.325m-48.05.586h1.406m94.91 0-.216.683m-53.136-.586h1.406m3.355.39-.108.098m48.808 0-.108.488m-49.674-.293v.879m-2.814-.488h.325m52.271 0h.541m-.65.488-.432.585v-.293m-99.889.098c.067.295.16.467.19.78.033.339.004.728.005 1.074.002.578 0 1.046.006 1.659.004.415.072 1.435-.309 1.366m100.43-4.684-.006 3.513-.32 1.951.326-1.366m-.325-4c-.104.505-.108.71-.108 1.17v2.928m-99.997-4c.007.23-.142.305.216.585m-.324.097-.217.293c.173.104.03.177.325 0m52.271 1.269-1.407 1.756c-.235-.717-.108-2.854-.108-3.318h1.299m-52.163.683v.39c-.093-.313-.071-.4.324-.585m46.536 0c.87.062 1.825.329 2.597.488m-49.349 0h.216m50.648.098h1.623m-52.595 0 .045 1.366-.37.878m49.89-1.952v4.001m.65-3.805c0 1.628-.017 3.2-.017 4.781 0 1.38.005 2.837.017 4.293.004.528-.091.946-.089 1.464.002.538.09.893.089 1.464-.002.672.005 1.48 0 2.147-.005.454-.009.78-.002 1.268.005.326.001.559.001.878 0 .638.005 1.604 0 2.245-.005.575-.1.967-.107 1.56-.018 1.468.107 2.84.107 4.294v5.075c0 .586-.068.981-.105 1.56-.08 1.272.105 2.3.105 3.514 0 1.15.004 2.376 0 3.512 0 .275-.016.516-.016.781 0 .245.018.428.013.683-.007.355-.066.612-.043.976.022.364.046.71.046 1.073 0 .513-.016.969-.016 1.464 0 2.567.033 5.142.033 7.709 0 .88-.049 2.137-.025 2.927.014.493.009.608.009.78.336.089.597.187.503.488-.194.626-1.32.199-1.477.098l.216.488m-49.35-55.425h.217m47.076.098 1.623.293m1.948-.293h.758m-51.622.585h.217m0 1.562c.29.922.058 2.043-.65 1.658.307-.555.451-1.24.437-2.049-.008-.436-.252-.842-.112-1.073m47.942.39.866.195m3.463.098-1.082 1.464m-.325-1.171v3.903c0 .607-.068 1.22.108 1.756l1.3-1.756m48.05-3.903.324.097m0 0h.541m-101.512.78.325-.39m100.43.098c.507.06.535.077.757.098m-.974-.098h.217m-97.291.293-.109 5.952m45.778-5.757c0 .577-.166 1.188.433 1.464m51.405-1.464.541.195m-101.079-.097h.217m99.996 0v1.073l.325-.585m-.541-.39v.39m-99.997-.196-.108.196m47.618-.098c0 2.03.135 4.087.107 6.147-.007.527-.41 1.69.109 2.05m-47.834-7.904h.325m-.217.097v.39m-.974-.195h.541m100.43.098.433.488c-.302.322-.424.475-.325.878.61-.41.777-.51 1.082-.683m-.649-.683-.108.39m-53.57-.292h1.732m51.621 0-.216.585m-51.297-.488.108 2.537-.324 5.27m-49.458-7.71h.217m.65 0 .107.391m.325-.39-.216.488m49.349-.39.54.292m50.432.293.65-.488m-.109.39c.034.512 0 1.43 0 2.245m-53.678-2.147 1.732.097m-48.916.196c.19.44-.109 1.455-.109 2.049.258-.163.284-.249.325-.586m100.538-1.463-.758.78-.108-.585m.433-.098v.098m-51.08 0 .649.488m50.54-.098c-.101.579-.56 1.436-.54 2.05.01.321.07.442.06.78-.007.222-.035.537-.038.78-.01.735.004 1.777-.015 2.44-.006.217-.008.357-.01.585 0 .26-.001.426.001.683.005.584-.044 1.273.108 1.757l.216-.488m-50.972-8.392v6.245c0 .813-.122 2.031.108 2.732l.541-.292m49.999-8.49v.488m.216-.488h.217m0 .39c0 1.025.025 1.416-.325 1.855m-101.728-1.464v7.416m.974-7.123V199.535m.54-6.636c.15.75-.01 2.287-.108 3.22l.109-.292m.433-2.928c0 .498.027 2.388-.002 3.22-.025.714-.153.699-.648 1.171m52.38-4.39-1.282 1.853.09 1.171.975-1.366m-1.083-1.561v1.366m51.19-.586.107 6.343-.108 11.612m-4.978-17.662.216 8.392m3.139-8.392c.227.057.269.123.757 0m-.865.586c.386-.103.563-.097.974-.098m-50.864.586.324-.196m49.457.098h1.083m-1.083 2.05.542-1.562m-.542.097h.325m-48.591.293c-.47.806-1.276 1.617-.974 2.537l.216-.292m-48.05-2.147v4.293m47.725-4.293v1.268m-50.755-1.073-.325.39m50.648 0 .324-.195m-50.54.488-.107 1.073m-.217-.78c.041.287.06.2-.108.488m.325-.488-.109.097m47.618-.097-.108.683m53.028-.683c-.018.372-.102.66-.108 1.268m-100.321-1.073h.216m-.325.097c.376.404.46.697.109 1.171l.108-.39m51.297-.683-.217.39m-2.272-.097-.109.097m-49.132.098.108.098m48.05-.098-.108.098m51.405-.098.109 7.709m-99.24-7.514-.324.098m47.617-.195v.097m1.407-.097-.108.097m-48.591.098c.354.447.327.836 0 1.268l-.109-.097v-.098l.109-.097.324.292v.098l-.324.293-.109-.098v-.098l.109-.097c.419.542.465 1.436-.109 2.049l.325.878c-.483.606-.466 1.5-.216 2.147.577-.552.415-1.443.216-2.05m.866-4.39-.108 6.928m46.643-6.928-.108.097m3.246.098v4.586c0 .633-.075 1.295.109 1.854.407-.6 1.024-1.398 1.515-2.05m-52.38-4.195.217.39m47.834-.097-.541.683m1.515-.586.216-.097m-49.24.097v.195m47.184-.195v.098m1.732.098-1.84 2.341m53.028-2.341h.758m.108.097a35.22 35.22 0 0 0 0 4.098c.661-.386.325-3.134.325-4m-1.19.195h.757m-53.461.195-.65.878m6.169-.878-1.732 2.05m-51.188-1.952.108.878m99.888-.39v3.512c0 1.705.089 3.398 0 5.074.304.02.674-.028.863.227.488.656.111 2.588.111 3.384m-51.621-12.1c-.055.837-.15 1.85.108 2.635l.54-.293m50.324-2.342-.108.586m-53.137 2.244c.614-.821 1.37-1.957 2.164-2.537m-2.597.097-.108.098m-46.644 0c-.013.285-.02.284 0 .585m1.515-.585v11.807m51.514-11.71-1.623 2.05m47.509-2.05v11.417M51.413 201.39l.325.195m-1.407-.098v3.123m.65-3.025c.26.155.287.308.324.78m.974-.683c0 .2.036.099-.108.293m2.814-.293v.39m97.29-.292c0 .61-.203 1.547.542 1.659m-53.894-1.561-.109.097m-46.968 0v.195m-.865-.097h.216m1.082.195c0 .2.036.098-.108.293m48.7-.098-.217.195m-48.808-.097v.195m48.7.097-.216.196m-49.025.195v1.366m48.916-1.366-1.19 1.561m2.273-1.464c-.03.573-.066 1.032.108 1.562l.54-.293m50.216-1.171c.152.395.51.434.757.097m.325.098v34.641c0 .57.281 2.053-.174 2.472-.27.25-.773.163-1.125.162-.975-.003-1.947 0-2.922 0-2.349 0-4.938.084-7.25-.028-.552-.026-.702-.223-1.191-.259-.657-.047-1.048-.27-1.623-.333-.596-.066-1.115.024-1.623.003-.851-.036-.298-.666-1.187-.618-.598.033-.679.62-.372.842.167.12.566.1.8.1.868.003 2.037.102 2.815-.097M54.985 203.73v10.05m43.938-7.318c.65-.87 1.391-2.147 2.272-2.732m50.973.195v.195m.757-.195v2.049m-.54-1.757h.432m-51.189.488.325.293m2.056-.293c-1.566 1.786-1.299 3.492-1.299 5.66 0 1.559-.108 3.119-.108 4.684m46.427-10.344h.108m-96.858.098c-.003.544.094 1.096-.433 1.659.503.557.053.748.007 1.366-.028.381.16.703.102 1.073l-.109-.293m0-3.708-.324.879m49.782-.78c-.066 1.09.033 2.123-.015 3.22-.01.225-.01.81.231.682m1.19-3.805v1.17m49.674-1.073v9.563l-.108 5.172m-52.92-12.393c.536-.717 1.126-1.653 1.84-2.147m-49.35.098.217.098m-.758 0v7.513c0 .555.25 2.118-.216 2.342m.757-9.66v.488m52.271-.098-.54.683m-51.298-.488-.433.586c.564.601.523 1.056.325 1.659m-.325-1.952v.098m48.7.78.65-.585m47.833 0 .109 8.196m-45.67-8.099-.433.683m-51.189-.585v.097m101.08 1.074v.78m-102.92-.683-.108 5.758m50.973-5.465.324-.293m3.247.098v3.708m47.618-3.513h1.082m-49.782.098.108 4.879m-51.189-4.782c-.007.542.028 1.047-.216 1.464M51.738 209l.325.585m47.834-.39-.325 11.612m1.732-11.612c0 .578-.277 2.197.216 2.537m50.431-2.44V218.173c0 1.023-.24 2.02.05 2.922.15.469.572.396 1.14.396M51.848 209.78v.684m98.157-.39.108 3.707-.108 7.807M100.33 210.17l.216 7.22m50.648-6.537V238.37c0 .586-.122 1.15.523 1.15.308 0 .5-.45.532-.76.035-.334.026-.584.027-.878.001-.262.002-.408 0-.683-.003-.383.059-.749-.035-1.154-.117-.51-.379-.562-.073-1.09-.135-.064-.081-.064-.216 0M52.28 211.342v.097m.216.195c-.002.427-.007.622-.216.976m49.024-.683c0 .76-.153 1.918 0 2.732l.216-.292m-49.24-1.757c-.06.93.06 2.065-.433 3.025m.649-3.025v4.489m-.541-4.391-.108 1.659m102.053-.976c.665 3.233 0 6.877 0 10.148m-100.43-9.367v22.833m97.183-22.833v22.833m-49.35-22.346c0 .343-.264 1.314.217 1.171m-50.54-.683h.217m.109.098-.217.878m3.788-.878v4.391m-2.597-4.294-.325 1.269.216-.683m-1.19-.195h.541m52.704 0-1.299 2.147m-51.189-2.05.217.293m-.65 0v.098m49.89-.098.109 1.171.541-.293m-51.946-.39h.108m2.273 0-.433.78-.109-.682m.217 0-.108.097m-.541.293c0 1.768.055 3.826-.006 5.562-.021.599-.362.817-.423 1.368-.277 1.101.182 4.51.32 1.657m1.082-8.49c-.017.42-.078 1.229-.433 1.171m0-.975-.108.39m49.457-.39v1.17m-49.349-.195.325-.683m51.946.098-.866 1.366m-.54-1.268c0 2.688.107 5.393.107 8.099 0 .993-.187 2.318.109 3.22.45-.665 1.074-1.693 1.731-2.342m44.371-8.977-.108 1.951m-96.642-1.366-.325 2.537c.33-.193.257-.268.217-.488m-.325-1.951c.052.34.087.307.217.39m52.27-.195-1.19 2.049m-53.137-1.952c.138 1.572.183 3.165.109 4.587m1.84-4.391c-.057.397-.015.39.108.487m49.24-.292-.216.195m51.73-.195.108 2.049v18.345m-49.782-20.297-.108.195m-51.08.098-.217.683m49.457.195c.065.466.18.959.092 1.464-.118.685-1.084 1.285-1.607 1.756m4.545-2.927-1.082 1.952m-51.189-1.757-.108.488.108-.293m.325-.097c-.008.617.022 1.125-.325 1.561-.09-.383-.025-.612.217-.878m99.888-.586h1.082m-101.511.293v.098m.216-.098v.195m100.105-.195.108.39.217-.097m-100.538 0v.195m100.213 0c.027.409-.023.81.216.976m-.108-.683h.758m-51.405.195c0 .476-.055 1.46.108 1.951l.433-.195m-49.999-1.561v.585c.346-.202.302-.396.217-.683m2.705.098v.78m49.241-.78-.108.098m-.108.195-.217.292m-53.461-.195.757.488m0-.488h.217m100.754.098h.325m-100.538.098.108.292.108-.292m.325.097c0 .694.16 1.253-.157 1.854-.223.422-.307.533-.168.976.255-.348.316-.508.217-.878m99.78-1.952.108.293.108-.293m-100.32.195c-.051.579-.002 1.373 0 1.757m47.4.292c.627-.701 1.285-1.558 2.056-2.049m50.756.098c-.079.562-.312 1.606.217 1.561m-101.512 0c-.509-.161-.658-.478-.541-.878.3.206.214.165.54.293m50.649-.098.108 1.073.433-.195m-2.814 1.66c.66-.751 1.344-1.722 2.164-2.245m48.917.195v13.954m-46.86-13.759-.325.585m46.102-.487v5.269m-98.048-5.172.216.098m50.323 0 .325.292m49.998-.292.108.292.217-.292m-97.291.195.108 7.416m46.319-7.416c-.047.808-.136 2.182.108 2.927l.433-.195m52.379-2.732-.108.488m-55.085-.39-.108.097m53.028-.098c-.095 1.085-.328 2.414 0 3.416.185-.564.108-1.405.108-2.245m-52.595.683 1.731-1.756m-49.024.293c-.31.853-.433 1.243-.433 2.147 0 .954-.135 1.712.217 2.634-.394.2-.262.513.108.78.151-.47.074-.72.086-1.17.03-1.07 0-2.93.022-3.806m-.433-.488.325.293m-.325-.097v.195m-.757.292c-.503.677.1 3.735.216.879m48.05 1.658c.565-.754 1.181-1.734 1.948-2.244m-49.349.098h.217m49.24 1.366c-.066 1.017.224 2.316-.173 3.318-.365.924-1.676 1.93-2.424 2.634m54.977-5.952v11.221m-53.245-10.245.757-.683m-50.214.097.183.393m100.787-.295.01 2.634.099 1.269m-49.35-3.806v5.855l.974-1.561m.758-4.294-1.515 2.147m-51.514-1.756.217-.098m50.648.488.324-.195m-51.513.097c.273.015.197.016.54 0m-.432.098c.129.203.116.207.433.39m-.433-.195c-.18.53.055.694-.216 1.171m.649-.976v.195m47.51 2.245c.672-.66 1.368-1.605 2.055-2.147m-49.349.293v.292m-.649.196c-.036.317-.332 1.281.002 1.723.23.304.614.053.322-.162m.108-1.561.109.195m52.054 0-.54.683m-51.082-.586c0 .402-.02.64-.015 1.074.02 1.277.532 4.033-.417 5.074l.216-.586m-.541-5.171.433-.098m99.997.098c0 .543-.096 1.638.216 1.854m-50.864-1.757v.683m-49.566-.585.325.39m-.108-.39v.097m51.297.098-.217.293m-51.297-.098v.195m97.292-.097v1.951m-49.89-1.756-.217.195m-47.726.293-.009.976.06.78-.267 1.464m.866-3.22.216.78m49.241-.78-3.463 3.22m3.68-3.22.003 3.22-.146 1.205-2.996.747m53.57-4.49.324.489m0-.39-.108.097m-97.183 0-.108 2.927m-3.03-2.83.216.293m46.644 0-.217.196m-46.643 0 .216.39m99.997-.39c.238.098.305.147.757.097m-51.73.098c-.684.54-1.596 1.716-2.489 1.854m4.113-1.854.108 1.951 1.407-1.561m-3.355-.195.217.195m-49.241 0 .216.293m100.322-.195h.216m-.65.097c.01.67.015 1.382.017 2.05.002.639-.004.857-.016 1.366m-100.213-3.22.216.097m50.431-.098-.108.098m-51.189.098c.173.365.109.355 0 .585.172.075.263.056.65.293l.108.097.216-.195m-.216-.78.216.195m49.025.097-.217.196m-49.024-.098v.195m47.076 1.464 1.732-1.366m-1.515.195h1.082m-48.916.195h.433m0 0 .216.293m50.756-.293v.488m-51.514-.39.433.292m-.433-.097-.216.292m.974-.292c.99 1.241-.326 2.248.974 2.146m1.84-2.049v.098m-2.922 0c.02.363-.22.923.216.976m-.757-.781.433-.098m52.595 0-.65.586m48.376-.586h.757m-101.511.196c-.518 1.334-.802 3.254 1.082 2.83l-.433-.098m49.674-2.732.216.683m-50.431-.586.325.098m3.787.195 4.221-.293m-8.008.195.108.098m49.24-.098-.757.781m37.878-.488 9.09-.293m-86.469.098 2.165.195m35.063-.195h.433m49.782 0h.108m-91.014.78c.156.153.194.158.541 0-.648-.17-.584-.119-.974-.39l.108-.097c.453.118.583.035 1.083.044.34.006.548.063.865.068.386.007.879-.014 1.3.029.463.047.761.06 1.19.069.614.012 1.373.133 1.947.182.244.02.397.032.65.079.361.067.614.026.974.031.325.005.436.072.757.113.365.047.528-.052.866-.014.602.069.478.191.866.452.223.15.635.258 1.082.02l-.18-.146c-.453-.265-.474-.168-.902.149-.363.268-.451.445-.901.228l-.181-.133c.468-.215.582-.13.865 0m76.621-.488c.063.148.015.202.541.39-.188.302-.365.535-1.082.39a3.8 3.8 0 0 0 .219-.49c.067-.185.13-.261.249-.346.17-.123.583-.404.83-.499.435-.166 1.043-.104 1.516-.106 1.216-.005 2.21-.072 2.922.27m-97.508-.195.433.293m-.108-.293-.216.195m4.761-.195h.433m1.407 0-.325.39m7.684-.39 5.087.488m31.708-.488c2.05.424 4.163.78 6.277.78m34.74-.585-.65.195c.412-.439.92-.355 1.515-.39m.65 0-.325.39.433-.097m.216-.293c.262.402.685.378 1.082.39-.66-.232-.634.352-1.096.471-.186.048-.557.021-.743.017m1.298-.878v.195m.433-.195v.195m.541-.195-.324.39m.865-.39c-.191.186-.184.23-.54.195m.973-.195-.324.293c.685.85 2.738.742 3.896.488m-94.045-.683c-.41.34-.443.355-.757.585-.209-.158-.698-.537-.65-.097m3.03-.488c.167.193.39.195.65.284.597.204.458.37 1.082.52.275.065.513.076.758.083.261.008.494-.02.757.002.626.054.774.329.974.477l.216-.488c.69.052.78.073.866-.293m-3.787-.586-.433.196m80.95.683.432-.195c.177.343.158.434-.108.78-.435-.488-.516-.698-1.407-.683.115-.644 1.461-.685 2.922-.78m1.19.097-.216.293m-89.174-.293-.109.293m2.057-.293c.177.107.033.098.324.098m2.814-.098-.108.098m2.38-.098.109.586c.157-.112.21-.25.757-.39m38.31-.196h.217m25 .78 10.28-.78m7.36 0c.235.164.432.306.432 0m.866 0c-.172.32-.107.228.108.195m4.113-.195c.519.309.815.293 1.515.293m-95.776-.195.216.097-.433.293m3.355-.39c.149.14.058.262-.08.586-.15.352.007.574.189.682l-.109-.488.65.098V240.323m1.731-.586.325-.585m3.138 0 .217.097m72.183.39.65-.28 2.597-.207m.758 0-.109.488m.65-.488-.217.488m.65-.488-.217.488m.65-.488-.325.292m.757-.292-.432.195m6.06-.195.108.097h-.216l.108-.097m.866 0c.278.107.275.143.65 0m-97.941.097.216.098m2.49-.098v1.074h.865v-.39m.216-.684h.217m3.355 0c.231.264.345.11.54 0m3.247 0 .433.488m8.333-.488c3.221.818 6.747.683 10.065.683m17.315-.683h.109m47.509 0h.541m.758 0-.217.196m.541-.196h.217m-94.478.098h.217m.324 0h.325m3.355 0 .108.195m2.814.195c.159-.122.242-.263.757-.39m1.407.195.325-.195m29.544.585 5.628-.585m40.258 0c-.022.227-.038.329-.108.78m.541-.78.325.488m1.082.39-.433.098c-.057-.122-.152-.273-.175-.487-.025-.222-.078-.325.283-.294m.65-.195.216.195m1.082-.195h.217m.65 0 .216.195m3.68-.195h.107m-95.56.098-.107.292m2.38-.292c-.105.352-.238.473-.432.878l.649.097m11.038-.975-.108.292m73.158-.292c.023.395.103.515.108.878m3.247-.878.078.23 1.978.16m-.757-.39v.195m-86.47-.098v.78l-1.19.098m2.056-.878c.289.66.166.477.638 1.083.379.488.96.354 1.635.37 1.086.028 2.518.178 3.571-.018.334-.063.45-.206.757-.206.254 0 .496.159.65.235l-.216-.195m-5.303-1.269c.291.362.437.19.866.293-.325.143-.317.146-.65 0m6.494-.293c.058.169 0 .293.432.39m52.055-.39v.195m.541-.195.108.293m19.372-.098c.366-.108.26-.083.541 0m8.874-.195c-.556.375-.55.469-1.082.67-.572.217-1.714.044-2.38.11m-90.799-.682.433.683m11.147-.683c.012.324-.103.673.434 1.205.32.318 1.371.147 1.839.142 1.442-.014 2.885 0 4.329.006.518.002 1.235-.012 1.555-.35.44-.464-.286-.49-.581-.515-.017.09.114.341-.341.522-.481.192-1.687-.08-1.932.259m69.045-1.269c-.145.31.449.783.217.39m7.359 0c-.095-.213-.122-.327.216-.292m-93.07.195.865-.098m8.333.39c.917.17.595-.228 1.624-.487m.216 0 .541.195m44.804-.195h6.602m15.367.488v-.39c.826.02 1.46-.357 1.732.487-.471-.025-1.121.04-1.732-.097-.245.83.88.768 1.623.585l-.974-.195m.974-.878h1.515m.542 0c0 .139-.014.266.002.585.01.204.028.424.248.515 1.062.442 3.541.07 4.62.07m-4.113-.682-.108-.39c.432-.107.705-.058 1.298-.098m7.576.097.974-.097m1.407 0-.325.39m4.113-.39c.15.33.698.524.649 1.17m-100.105-1.073.216.586v-.586m.65 0c.008.118-.017.186.077.49.152.493.67.652 1.005.584l-.541-.196m2.056-.78c1.164-.245.743.37 1.732.488m-.65-.586h.325m.433 0h.433m2.489 0-.325.585m.541-.585c.025.133.092.66.794.322l.18-.127.541.195v-.293m.433-.097h.325m1.082 0 .758.488m3.571-.488c.608.013 1.126-.085 1.948.097l-.108.586m32.142-.683c.73.021.947.28 1.298.585-.52.364-.745.235-1.19 0m.65-.39c.258-.098.388-.198.865-.098l-.325.488m15.8-.585h5.195m7.576.585v-.488m1.082-.097v.976m1.19-.976-.324.585m.757-.585v.488c.51-.088.956.05 1.515-.098m.866-.39-.108.293m.541-.293v.293m1.082-.293h.217m3.355 0-.109.39.758.098m.541-.488-.108.293m2.056-.293-.108.293m.65-.293c.11.12.018.144.324.097m2.38-.097-.216.195m1.407-.195v.976m.325-.976c-.013.273-.06.37 0 .878m.757-.878c-.052.197-.086.239-.108.683m-96.966-.586v.39m.433-.39v.293m.324-.293v.293m.65-.293v.39m.324-.39v.39m.325-.39v.39m4.978-.39v.293m2.49-.293v.293m4.76-.293c.116.088.649.54 1.012.148l.071-.148m-.325 0v.976m.866-.976.217.39m.216-.39.754.064.437.62m-.109-.684c.41.034.47.086.974.098m11.472.098 7.792-.196m9.848.781-.325-.585c.879-.214.705.27.65.585m2.164-.78.758.292c-.306.236-.514.337-.866.195m27.596.488c-.409-.04-1.72.185-1.444-.446.127-.291.645-.504.903-.47.372.047.428.27.582.52.148.237.307.336.609.396m-.758-.976h.65m.757 0v.293m.974-.293v.293m4.653-.293h.325m.866 0-.108.098m2.489-.098c-.217.285-.361.433-.433.879m3.463-.879-.216.196m2.489-.196-.541.39m2.705-.39-.108.098m-97.724 0-.217.586.65-.488m5.194-.098v.293m8.333-.293-.324.293m.757-.293v.585l1.082-.097v-.293m3.572-.195c.004.169 0 .201 0 .683m1.407-.683-.217.683m27.488-.488c-.966.07-1.264-.033-1.947.293.171.146.251.385.757.451.273.036.528-.079.757-.103.2-.022.438.024.579-.078.32-.232-.083-.483-.146-.563l1.732-.195m28.895.39-.216-.39h.757m.541 0 .325.488m.325-.488c0 .162.117-.012-.108.293m14.501-.293-.216.195m-93.07-.097c-.004.326-.126.718.432.878m6.06-.878v.097m.433-.097v.292m2.49-.292.432.195m4.979-.195c-.047.145.04.223-.542.683m.866-.683c.017.089-.098.28.251.418.36.141 1.392.088 1.589.362m1.515-.78-.541.292m1.407-.292v.487m1.19-.487c.242.17.103.373.33.621.218.24.817.134 1.185.115.366-.019.493-.134.866-.124.341.008 1.174.232 1.624.266l.108-.098c-.03-.351-.002-.277.108-.488-.33-.075-.95-.124-1.283-.046-.377.088-.393.306-.124.632m24.783-.878v.292m2.056-.292c.195.375.489.79 1.082.487m.866-.487c-.01 0 .198-.011.341.006.367.042.527.152.525.677-.708-.18-.75-.43-.866-.683m24.891.78c-1.178-.093-1.934-.044-2.164-.585.534-.132 1.218-.141 1.948-.195m-78.245.097.217.196m1.082-.098.325.098m12.553-.196v.488l-.974.098m1.732-.586v.293m2.056-.293v.293m.866-.293.541.196m3.896-.196h2.273m24.241 0c.057.15-.004.263.433.683m6.71-.195-.433-.39.332-.054 1.291.181 3.355.097.971.007.544.16c-.133.059-.205.133-.544.159-.275.021-.866.008-1.187.008-1.055.002-2.092-.01-3.139-.002-.381.003-.86.014-1.19.008-.786-.015-.352-.533-1.407-.564m22.618-.098c-.04.194-.05.189-.108.586m.866-.586v.586m1.19-.586c.136.184.171.195 0 .195m1.515-.195-.108.586m2.49-.488.432-.098m4.545 0-.216.195m9.848-.195 1.19.098m-83.438 0v.195m1.948-.195v.585m4.112-.585c-.119.402.092.698.433.488m.866-.488v.488m.325-.488v.488m.216-.488v.488m.216-.488v.488m.758-.488c.006.2-.097.313.216.683m20.779-.39c-.104.066-.186.205-.544.253-.175.023-.433-.013-.644-.02-.136-.005-.692-.056-.426-.367.142-.166.94-.142 1.073-.134.493.027.441.321 1.19.17m5.736-.195-.216.195m4.004-.195h.108m20.779.585c-.959-.046-3.406.24-3.896-.39l3.896-.195m.54 0v.488m.758-.488-.108.292m.758-.292v.488m5.302-.488c.036.407.25.583.974.585m3.896-.585h.217m1.948 0h.216m2.598 0h.108m-92.854.097v.293m4.437-.293h.216m12.77 0-.108.293m.433-.293.433.39m.974-.39v.488m4.112-.488c-.127.173-.108.062-.108.293m1.082-.293v.293m.433-.293v.488m.325-.488v.488m.541-.488c.538.036 1.708-.01 2.273.098l-.217.195-.108-.097m4.87.195c-.134.057-.206.127-.544.155-.419.036-1.025.079-1.188-.35 1.206.09 1.873.067 2.932.182 1.015.11 2.403.013 3.453.013.55 0 1.314-.027 1.84.005.216.013.542.105.758.092.47-.029.383-.171.974-.193 1.277-.048 1.263-.248 2.272-.295m3.355 0v.488m.65-.488v.293m1.298-.293-.433.488m4.87-.488.541.488c-.624.094-.7-.095-.865-.195m3.246-.293-.216.195m18.506-.195v.39m.324-.39v.39m.217-.39v.39m.433-.39v.39m.433-.39v.39m3.463-.39v.293m5.735-.293v.39m4.654-.39c.278.288 1.65.195 2.273.195h6.818m-98.59-.097.216.195m6.602-.195.108.292m19.372-.292c.044.247-.004.399.433.39-.119-.16-.109-.03-.109-.293m.325-.097c.04.235-.02.29.325.488.022-.334.013-.245 0-.488m.324 0c.238.575.994.567 1.515.329.62-.283.975-.27 1.84-.33m-2.705.098c.511-.118.765-.087 1.082.195m14.61-.292v.195m12.12-.195V240.81m.325-.292V240.81m.433-.292v.292m.325-.292V240.81m.324-.292V240.81m.433-.292V240.81m.433-.292V240.81m9.632-.097c-.44.169-.452.075-.65 0 .198-.076.21-.17.65 0m0-.098c1.12-.214 2.868.037 4.112-.097m.541 0v.292m.325-.292v.292m.433-.292v.292m.433-.292v.292m5.952-.292-.216.195m2.813 0 .866.195m-.325-.39v.195m-62.119-.098.325.293m7.684-.293v.293m1.19-.293c.162.428.449.353.974.39m-.65-.39v.293m.434-.293v.293m8.874-.098c.417-.203.459-.177.757-.195m2.49 0 .324.293m15.909-.293v.195m.433-.195v.195m.324-.195v.195m.433-.195v.195m.325-.195v.195m.325-.195v.195m.324-.195v.195m7.035-.195c.47.616 3.05.221 3.896.293m-3.572-.293v.195m.325-.195v.195m.325-.195v.195m.324-.195v.195m.325-.195v.195m.216-.195v.195m.65-.195v.195m.324-.195v.195m.217-.195v.195m.324-.195v.195m.325-.195v.195m11.039-.195h.649m-83.114.293h.541m2.814.098-.433-.196.974.16 1.84.036m1.731-.293h.108m3.247 0c.387.136.559.275 1.19.293m1.516-.196.216-.097m1.732 0v.195m1.731-.195v.195m1.299-.195v.195m8.982-.195v.195m.325-.195v.195m3.03-.195v.195m.325-.195v.195m.324-.195v.195m.325-.195v.195m9.848-.195c.155.098.172.216.65.195m-.433-.195h.324m7.9 0 .325-.098m10.822.098h5.52m12.012 0v.097m21.753-.097.108.097m-98.049 0 .217.196m.974-.196v.098m.433-.098v.098m.432-.098v.098m.433-.098v.098m.325-.098v.098m.758-.098v.098m.54-.098v.098m.325-.098v.098m.974-.098v.098m.866-.098v.098m.433-.098v.098m.325-.098v.098m19.155-.098.54.196m3.14-.196c.328.126.32.126.649 0m19.588 0v.098m.974-.098c.33.17.409.225.866 0m-52.38.098.325.098m18.614-.098h.217m26.514 0h.324m19.372 0h.108m14.286 0h.324m18.83 0-.324.39m-88.2-.292h.432m10.173 0h.217m2.056 0h.216m1.3 0h.107m23.376.293h.758m-4.87.195 3.571-.098m2.273 0h3.463m.866 0h43.83m-100.43.098h42.53m1.516 0h.866m.865 0h.109"/>
        <path style="opacity:.649842;mix-blend-mode:normal;fill:#000;fill-opacity:.911972;stroke:#000;stroke-width:.103;stroke-linecap:round;stroke-linejoin:bevel;stroke-dasharray:none;stroke-dashoffset:0;stroke-opacity:1;marker-start:url(#b);paint-order:stroke markers fill;filter:url(#filter2894)" d="m84.532 176.33.325-.098m-30.302.097H82.15m4.005 0h11.471m-46.752.683 1.19-.585m.867 0h.432m52.704.097h.65m1.731 0H131.5m-33.656.098h.324m7.576 0-1.407.293m32.033-.293h6.927m2.813.098c1.913.41 4.118.014 6.06 0m1.083 0h.108m-53.894.097 3.463.098m-50.54.488v.293l-.649-.586c.427-.104 1.304-.096 1.948-.098 1.48-.003 2.958 0 4.437 0h4.004c.545 0 1.241-.127 1.608.28.314.349.144.598.671.658.717.082 1.559.03 2.267.037.82.01 1.912.086 2.696-.013.435-.055.887-.267 1.416-.239.4.021.517.16.866.224.553.102 1.753-.017 2.38.03-.022-.27.048-.537-.649-.586v.488m-9.631-.879c.707.038 1.88 0 2.705 0 2.091 0 4.187-.036 6.277.002 5.802.108 11.62-.002 17.424-.002 2.143 0 4.72-.018 6.818.004.494.005.542.109.911.229.298.097.542.052.82.1.282.05 2.715.204 2.922.257.411.106.518.21.866.289l-.062.586-.046 1.56v4.684c.741-.432.686-1.557 1.515-2.537m-52.271-5.074c-.346.437-.404.595-.406 1.073-.002.524-.018 1.208-.026 1.757-.033 2.307 0 4.71 0 7.026v27.127c1.04 2.433-1.799 10.935.432 10.733M64.08 177.11c.373.55.875.494.974.78m8.224-.78c-.583.537-3.942.293-5.194.293-.42 0-1.358-.063-1.716.03-.397.104-.317.332-.34.458m7.683-.78v.78m3.355-.78c0 .4-.176.736.251.902.306.12.747.011 1.048-.122-.941-.448-3.226-.52-3.896.097.26.063.593.08.686-.124.21-.462-.525-.44-1.01-.461m3.354-.293c.192.386.296.53.325.878m.108-.878c.243.338 2.785.24 3.352.305.334.038.412.12.544.183-.76.366-2.29.23-3.463.293m0-.78c-.016.325-.024.336-.108.585m.54-.586c-.017.375-.037.378-.108.586m.758-.586v.683m12.662-.683c.304.41 3.07.547 3.463 0m-3.03 0v.195m2.705-.195.109.586.216-.196m12.77-.292c.32.01.23-.004.541.097l-.865.098m3.138 0c-.983 0-1.152-.02-1.515-.195.41-.11 2.235-.164 2.92-.086.336.039.41.12.543.183-.133.064-.207.145-.544.183-.265.03-.675 0-.971.021-.872.064-2.878.557-3.355-.106m7.684-.098c-.516.246-1.828.248-2.381 0 .553-.248 1.865-.245 2.38 0m1.84 0a1.884 1.884 0 0 1-1.623 0 1.884 1.884 0 0 1 1.623 0m1.732 0-.216.39-.542-.39c.284-.122 1.02-.232 1.624-.097l-.541.39c1.302.347 2.875-.523 4.22-.471.575.022.839.279 1.298.273.412-.006.555-.146.65-.192-.358-.096-.632-.098-1.19-.098m-3.355.293c.038-.27.702-.35 1.299-.195m4.437-.098c.703 0 1.588-.027 2.056.098-.132.063-.21.144-.544.183-.685.078-1.339-.005-1.512-.281m8.874 1.269c.575 0 1.2.202 1.45-.238.126-.221-.131-.812.321-.95.747-.23.987.362 1.26.797-1.246.263-2.994.09-4.33.01-.639-.04-1.404-.01-2.056-.01-.331 0-.88.028-1.178-.044-.514-.125-.452-.348-.337-.834 1.165.244 3.071-.18 4.112.098-.599.288-2.539.288-3.138 0m3.788-.098c.529 0 .745.008 1.082.098l-.18.099c-.54.192-.893-.034-1.552-.1m3.68-.097h3.68c.393 0 .917-.014 1.295.003.297.014.373.049.544.094-.132.064-.21.145-.544.183-.626.072-2.687.012-3.46.012-.294 0-.827.017-1.08-.012-.333-.038-.411-.12-.543-.183m7.142 0c-.348.163-.403.172-.757.098v-.098c.572-.139.53.034 1.19-.012 1.066-.075 2.72-.215 3.571.012-.606.292-2.748.292-3.354 0m5.302.098c-.759.202-1.162.072-1.515-.098.551-.126 2.057-.23 2.922 0a11.84 11.84 0 0 1-1.19.878c.105.268.111.49.116.781.012.616-.16 1.153.641 1.269m-100.104-2.928c-.017.429-.03.536 0 .781.114-.218.24-.401-.109-.585m38.96-.196c.214.35.423.37.866.394.865.049 1.726.094 2.597.094m.65-.487.216.585.325-.585m10.497.097c-.222.344-.342.247-.541.195.36-.222.56-.238 1.623-.097m-.324-.195h.216m1.299.39c.057-.157.003-.312.54-.39m4.438 0v.195m.541-.195v.195m.433-.195v.195m4.329-.195-.217.195h-.108m.65-.195.216.195m.433-.195h.974m.54 0-.216.585-.216-.195m.758-.39c.059.682 1.078.676 1.948.683l.216-.488h.216l.109-.098m-1.84-.098c.453.218.752.17 1.19.098m2.057 0 .865-.098m2.273 0h1.84m.433 0-.217.196m5.736-.196h.541m.541 0-.433.196m6.818-.196h.758m4.762 0h.432m.541 0c.001.406 0 .544.109.879.268-.32.215-.474.216-.879m2.165 0c.166.532.106.803 0 1.171-.162-.196-.22-.408-.758-.487m-100.105-.586.108.098m53.354.097-.181-.09c-.58-.188-.816.003-1.443.383v-.488c.08.047.189.15.544.323.206.1.357.16.644.117.278-.04.424-.171.544-.245m2.705-.195h.217m4.004 0h.433m2.38 0h.217m1.623 0h.974m7.36 0c.013.364.036.647.865.683-.083-.402-.087-.442-.108-.683m-.433 0v.586m5.195-.586v.586m4.112-.586v.683m10.39-.683c.008.23-.208.506.34.652 1.088.29 2.487-.156 3.555.129-.652.423-2.002.292-3.246.292h-9.09m-84.522-.975c.948.103.96.142 1.092.58.081.267.122.334.43.381.6.092 2.115.014 2.807.014H68.3M54.23 177.5c1.943-.518 4.678-.097 6.71-.097.86 0 1.947-.105 2.706.097m1.407 0 .974.098m9.307-.195c.622 0 1.694-.21 2.056.292m4.437-.097 2.922-.025.866-.165 3.246.092-.649-.097m.866 0c.86 0 1.662-.037 2.164.097-.422.113-1.733.41-2.164-.097m2.814 0H92m4.762 0 .543.37.755-.37m-.866 0v.097m7.035.293-.325-.098.433-.292m1.299 0v.292m32.574-.292c-.096.284-.093.274-.108.585m7.251-.585c.033.382.1.546.65.585m4.436-.585c.014.387-.022.547.433.683m-99.455-.586c.221.01.14.022.54 0m1.3 0 .324.488v-.488m.325 0 .25.43 1.806-.012 2.38.046 1.408-.114.866.133 3.246.005m-6.168-.488v.39m.324-.39v.39m.433-.39v.39m5.195-.39v.39m.757-.39v.39m.325-.39v.39m26.514-.39h.325m6.385 0h.757m.325 0c.108.178.188.289.325.098m.324-.098-.108.293m3.355 0c.181-.11.33-.362.974-.098-.632.273-.839.128-1.299.098m5.195-.293.325.293m16.558-.293v.39l-.433.098m.757-.488v.195m26.947-.195.109.585m2.164-.585v15.418m-102.919-15.32.217.585m23.051-.585.108.097m10.39-.097c.62.165 1.927 0 2.922 0m12.12 0c.232.31.628.282 1.083.292v-.292m-.65 0v.195m.325-.195v.195m.541-.195v.39l.65-.098m-.434-.292v.292m1.84-.292v.195m3.247-.195c.319.153.485.19.974.195m-55.193-.098.216.195m66.881-.195h.108m9.849 0c.52.116.636.29 1.515.293m-80.517-.195v13.856m20.237-13.856.541.195m6.17-.195v.195m18.938-.195h.216m2.056 0h.217m23.051 0h.108m16.666 0v.195m-38.96-.098h.217m53.353 0h.109m-99.456.098.108.39m4.762-.39c.27.064.163.064.433 0m.216 0c.322.095.22.095.541 0m26.19 0h5.195m33.332 0h1.19m13.095 0 4.113.004 2.056-.004m6.06 0 .541.097m-100.213 0c0 .397-.03.945-.022 1.269.007.257.02.414.022.683.008 1.073 0 2.415 0 3.513 0 2.167.053 4.407-.005 6.538-.028 1.02-.215 2.314.114 3.317.271-.428.136-.361.532-.585.164-.092.258-.128.287-.3.047-.27-.166-.392-.22-.676-.074-.392.268-.87-.058-.683v.195m1.082-13.368c-.513.195-.915.333-.954.878-.044.63.244.567-.02 1.073-.104-.306-.094-.296-.108-.585m17.532-1.269h.866m3.463 0h.216M53.257 211.75v25.664c0 .494-.007 1.868 0 2.244.004.207-.033.764.435.706.23-.03.306-.174.339-.228.135-.224.19-.341.2-1.063.056-4.387 0-8.786 0-13.174V209.994c0-4.31.008-8.765 0-13.076 0-.464-.046-.661-.09-1.073-.063-.598-.018-1.522-.018-2.147v-11.026c0-1.005-.426-2.973.065-3.872.207-.38 1.08-.229 1.45-.185.66.078 1.522.056 2.164.056h1.624c.872 0 1.852.03 2.705.098.455.036.71.092 1.19.097 3.032.032 6.167-.176 9.2-.296.574-.023 1.527-.078 2.056-.17.43-.074.523-.157.865-.248.434-.115 1.1-.066 1.515-.066m-.757.683 8.441-.683m8.766 0 4.87.39m5.52 0c-.685.163-.77.597-.65.976.306-.342.383-.66.984-.977.637-.336 1.65-.263 2.37-.348 2.693-.32 5.618-.041 8.334-.041m2.164 0 3.896.097m6.169-.097h1.623c.456 0 .964.063 1.407-.098m19.913.098h.325m.216 0c-.264.224-.32.217-.65.097m-98.589 0h.216m.217 0 .433.293h-.866m78.46-.293c.548.265 1.54.356 2.923.389 2.462.058 4.787.001 7.25.001 1.03 0 2.648-.062 3.247.098-.487.13-1.22.134-2.056.186-1.449.09-2.887-.089-4.329-.089m15.043-.585c-.718.765-.433 3.102-.433 4.488 0 4.394-.108 8.786-.108 13.174M52.932 178.28c.318.17.542.298 1.082 0m16.883.097h.108m64.717 0h.108m14.826 0c.836.628.433 2.5.433 3.416v9.855m.758-13.27c.11.79-.036 1.043.02 1.756.023.299.078.48.086.78.021.771.002 1.835.002 2.635v5.562c0 9.534-.108 19.061-.108 28.59m.541-39.324h.866m-101.079.098.217.195m.54-.195.109.488.108-.488m.65 0 .324.293m46.644-.293h.324m22.51 0 8.333.683m19.156-.585.324.097m1.299-.195c0 .35.07 1.534-.006 2.342-.032.343-.189.49-.322.78-.193.424-.14 1.201.003 1.66.166-.234.522-.627.108-.684m.974-4.098c-.348.589-.35 1.46 0 2.05.198-.602.198-1.449 0-2.05m-100.104.098.062 1.659.046 3.22-.108 12.49m.324-17.37v13.857m8.766-13.661c.897-.432 4.196-.195 5.628-.195m30.518 0h.108m5.844 0-.757.878h1.19m38.202-.78h3.247l4.437-.098m.758 0c0 .556-.007.794.216 1.17m-1.948-1.073v3.513c0 2.86-.037 5.728 0 8.587.008.533.112.868.108 1.366-.003.416-.083.648-.104 1.074-.08 1.649-.004 3.414-.004 5.074V239.756c-.523.067-.673.187-.974.293l.217-.196m1.515-61.182v30.152m-49.025-30.054c.005 1.783.108 3.576.108 5.367 0 .85-.048 1.59.541 1.854l.108-1.269m-47.617-5.855V236.243c0 .92-.019 1.918 0 2.83.007.308-.014.522.25.627.339.133 1.094-.176 1.806-.14-.255.424-.505.903-.982.956-.43.048-.505-.444-.533-.565m19.913-61.085h.757m24.783 0c.056.428.116.587.541.781m-49.998-.683h.216m1.515 0c-.076.37-.108.809-.108 1.17v24.786c0 2.118-.107 4.23-.108 6.343 0 .772-.192 1.572-.541 2.049-.255-.779.364-1.788.216-2.244-.307.27-.312.428-.324.78m11.904-32.494 7.9-.292m73.05.292 3.571-.292m.433 0v.097m-93.828 7.416v-5.464l.173-1.852 1.883-.003 5.303.098m37.445-.195.757.293m34.09-.195 8.55.195m8.982-.195h.54m-101.62.097h.217m46.427 0 1.948.098m49.458-.098.216 13.368m-49.457-13.27v2.927m3.68-2.927c-.459.45-.737.847-.742 1.463-.003.45-.058.714.092 1.171l.866-1.17-.65-.098.975-1.171m-3.464-.098-.016 1.952.016 2.732m2.49-4.586c-.31.056-.312.112-.325.39m49.457-.488.325.098m0 0h.324m-100.754.293c.086.382.19.61.198 1.073.007.466-.014.698-.167 1.073-.288.71-.197.837-.03 1.366.342-.593.26-.717-.013-1.463-.281-.773-.076-1.164-.096-1.66m99.997-.194v1.268m-96.318-1.17h2.706m39.826 0 2.164.194m.541.098.217.098m52.054-.098c0 3.262-.08 6.71-.008 9.953.01.427.087.66.104 1.074.052 1.313-.026 2.789-.007 4.098.012.883.138 2.142.005 3.025-.1.656-.356.733-.31 1.463.356-.207.325-.514.325-.975m-49.457-18.345h.324m-48.05.585h1.407m94.91 0-.216.683m-53.137-.585h1.407m3.355.39-.108.098m48.807 0-.108.488m-49.673-.293v.878m-2.814-.488h.324m52.271 0h.542m-.65.488-.433.586v-.293m-99.888.097c.067.296.16.467.19.781.032.338.004.728.005 1.073.002.579 0 1.046.006 1.66.004.415.072 1.435-.31 1.365m100.43-4.683-.006 3.512-.319 1.952.325-1.366m-.325-4c-.104.504-.108.71-.108 1.17v2.928m-99.996-4.001c.007.23-.142.306.216.585m-.325.098-.216.293c.173.104.03.177.325 0m52.27 1.268-1.406 1.757c-.235-.718-.108-2.854-.109-3.318h1.3m-52.164.683v.39c-.092-.313-.07-.401.325-.585m46.535 0c.87.062 1.826.328 2.598.488m-49.35 0h.217m50.648.097h1.623m-52.596 0 .046 1.366-.37.879m49.89-1.952v4m.65-3.805c0 1.628-.017 3.201-.017 4.782 0 1.38.005 2.836.016 4.293.004.527-.09.946-.088 1.464.002.538.09.892.088 1.463-.002.672.005 1.481 0 2.147-.004.454-.008.781-.001 1.269.005.325 0 .559 0 .878 0 .638.006 1.604 0 2.244-.004.575-.1.967-.107 1.561-.017 1.467.108 2.84.108 4.294v5.074c0 .587-.069.982-.105 1.561-.08 1.272.105 2.3.105 3.513 0 1.15.004 2.376 0 3.513-.001.275-.016.516-.016.78 0 .246.018.429.013.684-.007.354-.066.612-.044.976.023.364.047.71.047 1.073 0 .513-.017.969-.017 1.464 0 2.567.033 5.141.033 7.708 0 .88-.048 2.137-.025 2.928.015.493.01.608.01.78.335.089.596.187.503.487-.195.627-1.32.2-1.478.099l.217.488m-49.35-55.425h.216m47.077.097 1.623.293m1.948-.293h.757m-51.621.586h.216m0 1.561c.29.923.058 2.044-.65 1.659.307-.555.452-1.24.437-2.05-.008-.436-.251-.842-.111-1.073m47.942.39.866.196m3.463.098-1.083 1.463m-.324-1.17v3.902c0 .608-.068 1.22.108 1.757l1.299-1.757m48.05-3.903.325.098m0 0h.54m-101.511.78.325-.39m100.43.098c.507.059.534.076.757.097m-.974-.097h.216m-97.291.293-.108 5.952m45.778-5.757c0 .577-.166 1.188.432 1.463v0m51.406-1.463.54.195m-101.078-.098h.216m99.997 0v1.074l.325-.586m-.541-.39v.39m-99.997-.195-.108.195m47.617-.097c0 2.03.135 4.087.108 6.147-.007.526-.41 1.69.109 2.05m-47.834-7.905h.324m-.216.098v.39m-.974-.195h.54m100.43.098.433.487c-.301.323-.423.475-.324.879.609-.41.777-.511 1.082-.683m-.65-.683-.108.39m-53.57-.293h1.732m51.622 0-.216.586m-51.297-.488.108 2.537-.325 5.27m-49.457-7.71h.216m.65 0 .108.39m.324-.39-.216.488m49.35-.39.54.293m50.431.292.65-.488m-.108.39c.033.513 0 1.431 0 2.245m-53.678-2.147 1.731.098m-48.916.195c.191.44-.108 1.456-.108 2.05.257-.163.283-.25.324-.586m100.538-1.464-.757.78-.108-.585m.432-.097v.097m-51.08 0 .65.488m50.539-.097c-.1.578-.56 1.435-.54 2.049.011.322.071.443.06.78-.007.222-.034.538-.037.781-.01.735.004 1.776-.016 2.44-.006.217-.008.356-.009.585 0 .26-.002.425 0 .683.006.583-.043 1.272.108 1.756l.217-.487m-50.973-8.392v6.245c0 .813-.121 2.03.109 2.732l.54-.293m50-8.49v.489m.216-.488h.216m0 .39c0 1.025.026 1.415-.325 1.854M50.66 193.21v7.417m.973-7.124v6.733m.542-6.635c.149.75-.01 2.287-.109 3.22l.109-.293m.432-2.927c0 .497.028 2.388-.002 3.22-.024.714-.152.698-.647 1.17m52.38-4.39-1.282 1.854.09 1.17.975-1.365m-1.083-1.562v1.367m51.19-.586.107 6.343-.108 11.612m-4.978-17.662.216 8.392m3.139-8.392c.227.057.269.122.757 0m-.865.585c.386-.103.563-.096.974-.097m-50.864.585.324-.195m49.457.098h1.083m-1.083 2.049.542-1.562m-.542.098h.325m-48.591.293c-.47.805-1.276 1.617-.974 2.537l.216-.293m-48.05-2.147v4.294m47.725-4.294v1.269m-50.755-1.073-.325.39m50.648 0 .324-.195m-50.54.488-.107 1.073m-.217-.78c.041.287.06.2-.108.487m.325-.488-.109.098m47.618-.098-.108.683m53.028-.683c-.018.372-.103.66-.108 1.269m-100.321-1.074h.216m-.325.098c.376.404.46.697.109 1.171l.108-.39m51.297-.683-.217.39m-2.272-.098-.109.098m-49.132.098.108.097m48.05-.097-.108.097m51.405-.097.109 7.708m-99.24-7.513-.324.097m47.617-.195v.098m1.407-.098-.108.098m-48.591.097c.354.448.327.837 0 1.269l-.109-.098v-.097l.109-.098.324.293v.097l-.324.293-.109-.097v-.098l.109-.098c.419.543.465 1.436-.109 2.05l.325.878c-.484.606-.466 1.5-.216 2.146.577-.551.415-1.443.216-2.049m.866-4.39-.108 6.927m46.643-6.928-.108.098m3.246.097v4.587c0 .632-.075 1.294.109 1.854.407-.6 1.024-1.399 1.515-2.05m-52.38-4.195.217.39m47.834-.098-.541.683m1.515-.585.216-.098m-49.24.098v.195m47.184-.195v.098m1.732.097-1.84 2.342m53.028-2.342h.758m.108.098a35.22 35.22 0 0 0 0 4.098c.661-.386.325-3.134.325-4m-1.19.194h.757m-53.461.196-.65.878m6.169-.878-1.732 2.049m-51.188-1.952.108.878m99.888-.39v3.513c0 1.704.089 3.397 0 5.074.304.02.674-.029.863.226.487.657.111 2.589.111 3.384m-51.621-12.1c-.055.838-.15 1.85.108 2.635l.54-.292m50.324-2.342-.108.585m-53.137 2.244c.614-.82 1.37-1.957 2.164-2.537m-2.597.098-.108.098m-46.644 0c-.013.284-.02.283 0 .585m1.515-.585v11.807m51.514-11.71-1.623 2.05m47.509-2.05v11.417M51.74 202.09l.325.195m-1.407-.097v3.122m.65-3.025c.26.155.287.309.324.781m.974-.683c0 .2.036.098-.108.293m2.814-.293v.39m97.29-.292c0 .61-.203 1.546.542 1.658m-53.894-1.56-.109.097m-46.968 0v.195m-.865-.098h.216m1.082.196c0 .2.036.098-.108.292m48.7-.097-.217.195m-48.808-.098v.195m48.7.098-.216.195m-49.025.195v1.366m48.916-1.366-1.19 1.562m2.273-1.464c-.03.572-.066 1.031.108 1.561l.54-.293m50.216-1.17c.151.394.51.434.757.097m.325.098v34.64c0 .571.281 2.054-.174 2.473-.27.25-.773.163-1.125.162-.975-.003-1.947 0-2.922 0-2.349 0-4.938.083-7.25-.028-.552-.027-.702-.224-1.191-.26-.657-.047-1.048-.269-1.623-.333-.596-.066-1.115.025-1.623.003-.852-.035-.298-.666-1.187-.617-.598.033-.679.62-.372.842.167.12.565.1.8.1.868.002 2.037.101 2.815-.098m-84.413-36.787v10.05m43.938-7.318c.65-.869 1.391-2.147 2.272-2.732m50.973.195v.195m.757-.195v2.05m-.54-1.757h.432m-51.189.488.325.293m2.056-.293c-1.566 1.785-1.299 3.491-1.299 5.66 0 1.559-.108 3.119-.108 4.683m46.427-10.343h.108m-96.858.097c-.003.544.093 1.097-.433 1.66.503.556.053.747.007 1.365-.028.382.16.704.102 1.074l-.109-.293m0-3.708-.324.878m49.782-.78c-.066 1.09.032 2.124-.015 3.22-.01.226-.01.81.231.683m1.19-3.806v1.171m49.674-1.073v9.563l-.108 5.171m-52.92-12.392c.536-.717 1.126-1.654 1.84-2.147m-49.35.098.217.097m-.758 0v7.514c0 .555.25 2.117-.216 2.342m.757-9.66v.487m52.271-.097-.54.683m-51.298-.488-.433.585c.564.602.523 1.056.325 1.66m-.325-1.952v.097m48.7.78.65-.585m47.833 0 .109 8.197m-45.67-8.1-.433.684m-51.189-.586v.098m101.08 1.073v.781m-102.92-.683-.108 5.757m50.973-5.464.324-.293m3.247.098v3.708m47.618-3.513h1.082m-49.782.097.108 4.88m-51.189-4.782c-.007.541.028 1.047-.216 1.464m-.325-1.366.325.585m47.834-.39-.325 11.612m1.732-11.612c0 .577-.277 2.196.216 2.537m50.431-2.44V218.874c0 1.023-.24 2.02.05 2.922.15.468.572.395 1.14.396m-101.295-11.71v.683m98.157-.39.108 3.708-.108 7.806m-49.674-11.417.217 7.221m50.647-6.538v27.518c0 .586-.122 1.15.524 1.15.307 0 .5-.45.532-.76.035-.335.026-.584.027-.878 0-.262.002-.408 0-.683-.004-.384.058-.75-.035-1.155-.118-.51-.38-.562-.074-1.09-.134-.063-.081-.064-.216 0m-99.672-23.614v.098m.216.195c-.002.426-.007.622-.216.976m49.024-.683c0 .759-.153 1.918 0 2.732l.217-.293m-49.241-1.756c-.06.93.06 2.065-.433 3.025m.65-3.025v4.489m-.542-4.392-.108 1.66m102.053-.976c.666 3.232 0 6.877 0 10.148m-100.43-9.368v22.834m97.183-22.834v22.834m-49.349-22.346c0 .343-.265 1.313.217 1.171m-50.54-.683h.217m.108.097-.217.879m3.788-.879v4.392m-2.597-4.294-.325 1.269.217-.683m-1.19-.196h.54m52.704 0-1.298 2.147m-51.19-2.049.217.293m-.65 0v.097m49.891-.097.108 1.17.541-.292m-51.946-.39h.108m2.273 0-.433.78-.108-.683m.216 0-.108.098m-.541.293c0 1.768.055 3.825-.005 5.562-.366 1.345-.811 2.927-.32 4.293.249-.42.188-.706.217-1.269m1.082-8.489c-.016.42-.078 1.228-.432 1.171m0-.976-.109.39m49.458-.39v1.171m-49.35-.195.325-.683m51.947.098-.866 1.366m-.541-1.269c0 2.69.108 5.394.108 8.1 0 .993-.187 2.318.108 3.22.451-.665 1.075-1.694 1.732-2.343m44.37-8.977-.108 1.952m-96.642-1.366-.324 2.537c.329-.194.256-.268.216-.488m-.324-1.952c.052.341.086.308.216.39m52.271-.195-1.19 2.05m-51.19-1.757c-.055.398-.014.391.109.488m49.24-.293-.216.195m51.73-.195.108 2.05v18.344m-49.781-20.296-.109.195m-51.08.098-.217.683m49.458.195c.065.466.179.958.092 1.464-.119.685-1.085 1.285-1.608 1.756m4.546-2.927-1.082 1.951m-51.19-1.756-.107.488.108-.293m.324-.098c-.008.617.023 1.125-.324 1.562-.09-.384-.026-.612.216-.879m99.889-.585h1.082m-101.512.293v.097m.217-.097v.195m100.104-.195.109.39.216-.098m-100.538 0v.195m100.213 0c.027.41-.023.81.217.976m-.108-.683h.757m-51.405.195c0 .477-.054 1.46.108 1.952l.433-.195m-49.998-1.561v.585c.345-.202.301-.396.216-.683m2.706.098v.78m49.24-.78-.108.097m-.108.195-.216.293m-52.704-.195h.216m100.754.098h.325m-100.538.097.109.293.108-.293m.324.098c0 .694.16 1.253-.157 1.854-.223.422-.307.533-.167.976.254-.349.316-.508.216-.879m99.78-1.951.109.292.108-.292m-100.321.195c-.05.579-.001 1.373 0 1.756m47.4.293c.628-.702 1.285-1.559 2.057-2.05m50.756.098c-.08.562-.313 1.606.216 1.562m-50.864-.683.108 1.073.433-.195m-2.814 1.659c.66-.75 1.344-1.722 2.165-2.245m48.916.196v13.953m-46.86-13.758-.325.585m46.103-.488v5.27m-98.049-5.172.216.097m50.323 0 .325.293m49.998-.293.109.293.216-.293m-97.291.195.108 7.417m46.319-7.417c-.047.808-.136 2.183.108 2.928l.433-.195m52.38-2.733-.109.488m-55.085-.39-.108.098m53.029-.098c-.095 1.085-.329 2.414 0 3.415.184-.563.108-1.404.108-2.244m-52.596.683 1.732-1.756m-49.025.292c-.31.854-.432 1.243-.432 2.147 0 .954-.136 1.713.216 2.635-.394.2-.262.512.108.78.152-.471.074-.72.087-1.17.029-1.07 0-2.93.021-3.806m-.432-.488.324.293m-.324-.098v.195m-.758.293c.146.845-.446 1.237-.108 2.147.284-.36.295-.542.324-1.269m48.05 1.66c.566-.756 1.181-1.736 1.949-2.245m-49.35.097h.217m-1.19.976h.216m50.215.39c-.067 1.017.223 2.316-.173 3.318-.366.924-1.677 1.93-2.424 2.635m54.976-5.953v11.222m-53.245-10.246.758-.683m-50.215.098.184.393-.354.786c.172 1.684-.746 1.968.062 1.846m101.079-2.928.01 2.635.098 1.269m-49.35-3.806v5.855l.975-1.562m.757-4.293-1.515 2.147m-51.513-1.757.216-.097m50.648.487.325-.195m-51.514.098c.273.015.197.015.541 0m-.433.098c.129.203.117.206.433.39m-.433-.195c-.18.53.055.694-.216 1.17m.65-.975v.195m47.508 2.244c.674-.659 1.369-1.604 2.057-2.146m-49.35.292v.293m-.649.195c-.036.318-.332 1.282.002 1.724.23.304.614.053.323-.163m.108-1.56.108.194m52.055 0-.542.683m-51.08-.585c0 .402-.022.639-.015 1.073.019 1.277.532 4.034-.418 5.074l.216-.585m-.54-5.172.432-.097m99.997.097c0 .543-.096 1.639.216 1.854m-50.864-1.756v.683m-49.565-.586.324.39m-.108-.39v.098m-1.082 0v3.708c-.842.234-.016.645.001 1.269m52.378-4.88-.217.293m-51.297-.097v.195m97.292-.098v1.952m-49.89-1.757-.217.196m-47.726.292-.009.976.06.78-.267 1.464m.866-3.22.216.781m49.241-.78-3.463 3.22m3.68-3.22.004 3.22-.147 1.205-2.996.746m53.57-4.489.324.488m0-.39-.108.098m-97.183 0-.108 2.927m-3.03-2.83.216.293m46.644 0-.217.195m-46.643 0 .216.39m99.997-.39c.238.099.305.148.758.098m-51.73.097c-.685.54-1.597 1.717-2.49 1.854m4.113-1.854.108 1.952 1.407-1.561m-3.355-.196.217.196m-49.241 0 .216.292m100.322-.195h.216m-.65.098c.01.67.015 1.382.017 2.049.002.64-.004.857-.016 1.366m-100.213-3.22.216.098m50.431-.098-.108.098m-51.189.097c.173.366.109.356 0 .586.172.075.263.055.65.292l.108.098.216-.195m-.216-.78.216.194m49.025.098-.217.195m-49.024-.098v.196m47.076 1.463 1.732-1.366m-1.515.195h1.082M51.633 238h.433m0 0 .216.292m50.756-.292v.487m-51.513-.39.432.293m-.432-.098-.217.293m.974-.293c.99 1.242-.326 2.248.974 2.147m1.84-2.05v.098m-2.922 0c.02.364-.22.924.216.976m-.757-.78.433-.098m52.595 0-.649.585m48.375-.585h.758m-101.512.195c-.329.726-.438 1.23-.367 1.952.02.195.037.492.192.68.177.214.319.32.391.393l.866-.195-.433-.098m49.674-2.732.216.683m-50.972-.585v.195m.541-.195.325.097m3.788.195 4.22-.292m-8.008.195.108.097m49.24-.097-.757.78m37.878-.487 9.09-.293m-86.469.097 2.165.196m35.064-.196h.433m49.781 0h.109m-91.015.781c.156.152.194.157.541 0-.647-.17-.583-.12-.974-.39l.109-.098c.452.118.582.036 1.082.045.34.006.548.062.866.067.385.007.878-.013 1.298.03.465.047.763.06 1.19.068.615.012 1.374.134 1.949.182.243.021.396.033.65.08.36.067.613.025.973.03.325.006.437.072.758.114.364.047.528-.053.865-.014.602.068.478.191.866.451.224.15.636.258 1.082.02l-.18-.145c-.453-.265-.473-.169-.902.148-.362.268-.451.445-.901.228l-.181-.133c.468-.214.582-.13.866 0m76.62-.488c.063.149.015.202.542.39-.189.303-.366.536-1.083.39a3.8 3.8 0 0 0 .219-.49c.067-.184.13-.26.249-.346.17-.123.583-.403.831-.498.434-.166 1.042-.104 1.515-.106 1.217-.005 2.211-.072 2.922.27m-97.507-.195.432.292m-.108-.292-.216.195m4.762-.195h.432m1.407 0-.324.39m7.683-.39 5.087.488m31.709-.488c2.05.423 4.162.78 6.277.78m34.739-.585-.65.195c.412-.44.92-.356 1.515-.39m.65 0-.325.39.433-.098m.216-.292c.262.401.685.377 1.083.39-.66-.232-.635.352-1.096.47-.187.049-.558.022-.744.018m1.299-.878v.195m.432-.195v.195m.542-.195-.325.39m.866-.39c-.192.186-.185.23-.541.195v0m.974-.195-.325.292c.686.85 2.738.743 3.896.488m-94.045-.683c-.409.34-.442.355-.757.586-.209-.158-.697-.538-.65-.098m3.03-.488c.167.194.39.195.65.285.597.204.458.37 1.082.519.275.065.514.076.758.084.261.008.494-.02.757.002.626.053.774.329.974.476l.217-.488c.69.053.778.074.866-.293m-3.788-.585-.433.195m80.95.683.432-.195c.177.343.159.435-.108.78-.434-.488-.515-.697-1.407-.682.115-.644 1.462-.686 2.922-.781m1.19.098-.216.292m-92.637-.292c-.287.4-.837.548-.488.814l.163.064m3.788-.878-.108.292m2.056-.292c.177.106.033.097.324.097m2.814-.097-.108.097m2.38-.097.11.585c.156-.111.21-.25.757-.39m38.31-.195h.217m24.999.78 10.28-.78m7.36 0c.235.164.433.306.433 0m.865 0c-.172.32-.107.227.109.195m4.112-.195c.519.308.815.292 1.515.292m-95.776-.195.217.098-.433.293m3.355-.39c.148.139.057.262-.08.585-.15.353.007.574.188.683l-.108-.488.649.097V241.024m1.731-.585.325-.586m3.139 0 .216.098m72.184.39.65-.28 2.596-.208m.758 0-.108.488m.649-.488-.216.488m.649-.488-.217.488m.65-.488-.325.293m.758-.293-.433.195m6.06-.195.108.098h-.216l.108-.098m.866 0c.278.107.275.144.65 0m-97.941.098.216.097m2.49-.097v1.073h.865v-.39m.217-.683h.216m3.355 0c.231.264.345.11.541 0m3.247 0 .433.488m8.333-.488c3.22.818 6.746.683 10.064.683m17.316-.683h.108m47.51 0h.54m.758 0-.217.195m.541-.195h.217m-94.478.097h.217m.325 0h.324m3.355 0 .108.196m2.814.195c.16-.123.242-.264.758-.39m1.407.195.324-.196m29.545.586 5.627-.586m40.259 0c-.023.227-.039.329-.109.781m.541-.78.325.487m1.082.39-.433.098c-.056-.121-.152-.273-.175-.486-.024-.222-.078-.325.284-.294m.649-.195.216.195m1.083-.195h.216m.65 0 .216.195m3.68-.195h.108m-96.101.097-.217.39m.758-.39-.108.293m2.38-.293c-.105.353-.237.474-.432.878l.65.098m11.038-.976-.108.293m73.157-.293c.023.395.103.516.108.878m3.247-.878.078.23 1.978.16m-.757-.39v.195m-86.47-.097v.78l-1.19.098m2.057-.878c.288.66.166.477.637 1.083.38.488.96.353 1.635.37 1.086.028 2.518.178 3.571-.019.334-.062.45-.205.757-.205.254 0 .496.158.65.234l-.216-.195m-5.303-1.268c.292.361.437.19.866.292-.325.143-.317.147-.65 0m6.494-.292c.058.168 0 .292.433.39m52.054-.39v.195m.541-.195.109.292m19.371-.097c.366-.108.26-.083.541 0m8.875-.195c-.556.374-.551.468-1.083.67-.572.216-1.714.044-2.38.11m-90.798-.683.432.683m11.147-.683c.012.325-.103.674.434 1.205.32.318 1.372.148 1.839.143 1.443-.015 2.885-.001 4.329.006.518.002 1.235-.013 1.556-.35.44-.464-.287-.49-.582-.515-.016.09.114.34-.34.522-.482.191-1.688-.081-1.933.258m69.045-1.268c-.144.31.45.783.217.39m7.359 0c-.094-.213-.121-.328.216-.293m-93.07.195.866-.097m8.333.39c.916.169.594-.228 1.623-.488m.216 0 .542.195m44.803-.195h6.602m15.367.488v-.39c.826.021 1.46-.357 1.732.488-.471-.026-1.12.039-1.732-.098-.245.83.88.769 1.624.586l-.974-.196m.974-.878h1.515m.54 0c0 .14-.013.266.003.586.01.204.028.423.249.515 1.061.442 3.54.07 4.619.07m-4.113-.683-.108-.39c.432-.106.706-.058 1.299-.098m7.575.098.974-.098m1.407 0-.325.39m4.113-.39c.15.331.698.525.65 1.171m-100.106-1.073.217.585v-.585m.65 0c.007.117-.018.185.076.49.152.493.67.651 1.005.583l-.54-.195m2.055-.78c1.164-.245.743.37 1.732.487m-.65-.586h.325m.433 0h.433m2.49 0-.325.586m.54-.586c.026.134.092.661.794.323l.18-.127.542.195v-.293m.433-.098h.324m1.082 0 .758.488m3.571-.488c.608.014 1.126-.084 1.948.098l-.108.586m32.142-.684c.731.022.948.28 1.299.586-.52.364-.746.235-1.19 0m.648-.39c.26-.098.389-.198.866-.098l-.324.488m15.8-.586h5.195m7.575.586v-.488m1.082-.098v.976m1.19-.976-.324.586m.758-.586v.488c.51-.087.955.05 1.515-.097m.865-.39-.108.292m.541-.293v.293m1.083-.293h.216m3.355 0-.108.39.757.098m.541-.488-.108.293m2.056-.293-.108.293m.65-.293c.11.12.019.145.324.098m2.381-.098-.216.196m1.406-.196v.976m.325-.976c-.013.273-.06.37 0 .879m.758-.879c-.053.197-.086.24-.109.683m-96.966-.585v.39m.433-.39v.293m.324-.293v.293m.65-.293v.39m.324-.39v.39m.325-.39v.39m4.978-.39v.293m2.49-.293v.293m4.761-.293c.115.087.648.539 1.012.147l.07-.147m-.324 0v.976m.865-.976.217.39v0m.216-.39.754.064.437.619m-.108-.683c.409.034.469.085.974.098m11.471.097 7.792-.195m9.848.78-.324-.585c.878-.213.704.27.649.586m2.164-.781.758.293c-.306.236-.514.336-.866.195m27.597.488c-.41-.04-1.72.185-1.444-.447.127-.29.644-.504.902-.47.372.047.428.271.583.52.147.238.306.336.608.397m-.758-.976h.65m.757 0v.293m.974-.293v.293m4.654-.293h.324m.866 0-.108.098m2.489-.098c-.217.285-.361.433-.433.878m3.463-.878-.216.195m2.489-.195-.541.39m2.705-.39-.108.098m-97.724 0-.216.585.649-.488m5.195-.097v.292m8.333-.292-.325.292m.758-.292v.585l1.082-.098v-.292m3.571-.195c.004.168 0 .2 0 .683m1.407-.683-.217.683m27.489-.488c-.967.069-1.265-.033-1.948.292.172.146.251.386.758.452.272.036.528-.08.757-.104.2-.021.437.025.578-.077.32-.233-.083-.484-.145-.563l1.731-.195m28.895.39-.216-.39h.758m.54 0 .325.487m.325-.487c0 .162.117-.012-.108.292m14.501-.292-.216.195m-93.07-.098c-.004.326-.126.718.432.878m6.06-.878v.098m.434-.098v.293m2.489-.293.433.195m4.978-.195c-.047.145.04.223-.541.683m.865-.683c.017.09-.098.281.251.418.36.142 1.392.089 1.59.363m1.514-.78-.54.292m1.406-.293v.488m1.19-.488c.242.171.103.374.33.622.218.24.817.134 1.186.115.366-.02.492-.134.865-.125.341.008 1.174.233 1.624.266l.108-.097c-.03-.352-.002-.277.108-.488-.33-.076-.949-.125-1.282-.047-.378.089-.394.306-.125.632m24.783-.878v.293m2.056-.293c.195.375.489.79 1.082.488m.866-.488c-.01 0 .198-.01.341.006.368.042.527.153.525.677-.707-.179-.75-.43-.866-.683m24.891.781c-1.177-.094-1.934-.045-2.164-.585.534-.133 1.218-.142 1.948-.196m-78.244.098.216.195m1.082-.097.325.097m12.554-.195v.488l-.974.097m1.731-.585v.293m2.056-.293v.293m.866-.293.541.195m3.896-.195h2.273m24.242 0c.057.15-.004.263.432.683m6.71-.195-.433-.39.333-.055 1.29.182 3.355.097.972.007.544.159c-.134.06-.206.133-.544.16-.276.02-.867.007-1.188.007-1.055.002-2.091-.009-3.138-.002-.382.003-.86.015-1.19.008-.787-.015-.352-.532-1.408-.564m22.619-.097c-.042.193-.052.188-.109.585m.866-.585v.585m1.19-.585c.137.184.171.195 0 .195m1.516-.195-.109.585m2.49-.488.432-.097m4.546 0-.217.195m9.848-.195 1.19.097m-99.455.39-.54.196c.041-.494.217-.521.432-.586m16.125 0v.195m1.948-.195v.586m4.112-.586c-.118.402.092.698.433.488m.866-.488v.488m.325-.488v.488m.216-.488v.488m.217-.488v.488m.757-.488c.006.201-.096.313.217.683m20.778-.39c-.103.067-.185.205-.544.253-.175.024-.433-.012-.644-.019-.135-.005-.692-.056-.426-.367.142-.166.94-.142 1.073-.135.493.027.441.322 1.19.17m5.736-.195-.216.196m4.004-.196h.108m20.779.586c-.958-.046-3.406.24-3.896-.39l3.896-.196m.54 0v.488m.758-.488-.108.293m.758-.293v.488m5.303-.488c.035.408.249.583.974.586m3.896-.586h.216m1.948 0h.216m2.598 0h.108m-92.854.098v.293m4.437-.293h.216m12.77 0-.108.293m.433-.293.433.39m.974-.39v.488m4.113-.488c-.128.173-.109.062-.109.293m1.083-.293v.293m.432-.293v.488m.325-.488v.488m.541-.488c.538.036 1.708-.01 2.273.098l-.217.195-.108-.098m4.87.195c-.133.057-.206.127-.544.156-.419.035-1.025.078-1.187-.35 1.206.09 1.872.067 2.931.182 1.015.11 2.403.012 3.454.012.55 0 1.313-.026 1.84.005.215.013.54.106.757.093.47-.03.383-.172.974-.194 1.277-.047 1.263-.248 2.273-.294m3.355 0v.488m.649-.488v.292m1.299-.292-.433.488m4.87-.488.54.488c-.624.093-.7-.095-.865-.196m3.247-.292-.217.195m18.506-.195v.39m.325-.39v.39m.216-.39v.39m.433-.39v.39m.433-.39v.39m3.463-.39v.292m5.736-.292v.39m4.653-.39c.278.288 1.65.195 2.273.195h6.818m-98.915-.098-.216.195m.541-.195.216.195m6.602-.195.108.293m19.372-.293c.045.247-.004.4.433.39-.119-.16-.108-.03-.108-.292m.324-.098c.04.236-.02.291.325.488.022-.334.013-.245 0-.488m.325 0c.238.576.993.568 1.515.33.618-.283.975-.27 1.84-.33m-2.706.098c.511-.118.766-.087 1.082.195m14.61-.293v.195m12.12-.195V241.512m.325-.293V241.512m.433-.293v.293m.325-.293V241.512m.325-.293V241.512m.433-.293V241.512m.432-.293V241.512m9.632-.098c-.44.17-.452.076-.65 0 .198-.075.21-.169.65 0m0-.097c1.12-.214 2.868.036 4.113-.098m.54 0v.293m.325-.293v.293m.433-.293v.293m.433-.293v.293m5.952-.293-.216.195m2.814 0 .865.196m-.324-.39v.194m-62.12-.097.325.293m7.684-.293v.293m1.19-.293c.162.428.449.353.974.39m-.649-.39v.293m.433-.293v.293m8.874-.098c.417-.203.46-.178.758-.195m2.489 0 .324.293m15.909-.293v.195m.433-.195v.195m.325-.195v.195m.432-.195v.195m.325-.195v.195m.325-.195v.195m.324-.195v.195m7.035-.195c.47.616 3.05.22 3.896.293m-3.572-.293v.195m.325-.195v.195m.325-.195v.195m.324-.195v.195m.325-.195v.195m.217-.195v.195m.649-.195v.195m.325-.195v.195m.216-.195v.195m.325-.195v.195m.324-.195v.195m11.039-.195h.65m-83.115.293h.541m2.814.097-.433-.195.974.16 1.84.035m1.731-.293h.109m3.246 0c.387.137.559.275 1.19.293m1.516-.195.216-.098m1.732 0v.196m1.731-.196v.196m1.299-.196v.196m8.982-.196v.196m.325-.196v.196m3.03-.196v.196m.325-.196v.196m.325-.196v.196m.324-.196v.196m9.848-.196c.155.098.172.217.65.196m-.433-.196h.325m7.9 0 .324-.097m10.823.097h5.519m12.012 0v.098m21.753-.098.108.098m-98.049 0 .217.195m.974-.195v.098m.433-.098v.098m.433-.098v.098m.433-.098v.098m.324-.098v.098m.758-.098v.098m.54-.098v.098m.326-.098v.098m.974-.098v.098m.865-.098v.098m.433-.098v.098m.325-.098v.098m19.155-.098.541.195m3.139-.195c.328.126.32.126.649 0m19.588 0v.098m.974-.098c.33.17.409.224.866 0m-57.141.098.54.097m4.222-.097.324.097m18.614-.097h.217m26.514 0h.325m19.371 0h.109m14.285 0h.325m18.83 0-.325.39m-88.2-.293h.433m10.173 0h.216m2.056 0h.217m1.298 0h.109m23.375.293h.758m-4.87.195 3.571-.097m2.273 0h3.463m.866 0h43.83m-56.384.097h.866m.866 0h.108"/>
        <text xml:space="preserve" transform="matrix(.44945 0 0 .67343 -41.492 -296.359)" style="font-size:42.6667px;font-family:'Modern No. 20';-inkscape-font-specification:'Modern No. 20, Normal';white-space:pre;shape-inside:url(#c);fill:#000;stroke:#000;stroke-width:1.242;paint-order:stroke markers fill"><tspan x="221.061" y="762.866"><tspan style="font-family:'Bradley Hand ITC';-inkscape-font-specification:'Bradley Hand ITC, Normal'">Cook</tspan></tspan></text>
        <text xml:space="preserve" transform="matrix(.42081 0 0 .57931 -65.776 -224.672)" style="font-size:42.6667px;font-family:'Modern No. 20';-inkscape-font-specification:'Modern No. 20, Normal';white-space:pre;shape-inside:url(#d);fill:#000;stroke:#000;stroke-width:1.242;paint-order:stroke markers fill"><tspan x="412.064" y="762.046"><tspan style="font-family:'Bradley Hand ITC';-inkscape-font-specification:'Bradley Hand ITC, Normal'">Book</tspan></tspan></text>
    </g>
</svg>
